<svg width="507" height="512" viewBox="0 0 507 512" fill="none" xmlns="http://www.w3.org/2000/svg">
<g clip-path="url(#clip0_207_2694)">
<path d="M506.621 253.985C507.254 394.894 394.35 509.631 254.463 510.268C114.557 510.906 0.635972 397.194 0.00265142 256.286C-0.630669 115.377 112.273 0.640368 252.179 0.00251182C392.066 -0.616016 505.987 113.077 506.621 253.985Z" fill="#FFE866"/>
<path d="M381.781 163.839C363.395 158.485 344.357 150.869 325.05 143.195C323.937 138.325 319.658 132.255 310.983 124.814C298.374 113.796 274.692 114.086 254.234 118.957C231.645 113.603 209.326 111.689 187.908 116.869C12.7658 165.482 112.063 284.026 47.752 403.228C56.9064 422.77 157.872 516.658 298.24 506.233C298.24 506.233 249.436 388.113 359.576 331.402C448.913 285.418 513.454 200.023 381.761 163.819L381.781 163.839Z" fill="#4BCC00"/>
<path d="M266.363 192.26C266.363 219.514 244.427 241.588 217.386 241.588C190.345 241.588 168.409 219.514 168.409 192.26C168.409 165.006 190.345 142.952 217.386 142.952C244.427 142.952 266.363 165.025 266.363 192.26Z" fill="white"/>
<path d="M443.077 263.25C403.408 291.413 358.25 312.771 294.247 312.771C264.289 312.771 258.205 280.704 238.399 296.419C228.17 304.537 192.129 322.687 163.514 321.315C134.65 319.923 88.5711 303.029 75.6168 241.544C70.4927 303.029 67.8826 348.337 44.9488 400.254C101.246 482.993 199.405 524.157 298.239 506.254C287.626 431.587 352.416 358.465 388.919 321.044C402.736 306.876 429.221 283.739 443.077 263.25Z" fill="#4BCC00"/>
<ellipse cx="238.03" cy="191.922" rx="28.7401" ry="40.2361" fill="#0D1217"/>
<path d="M249.526 118.863C265.206 125.131 322.467 144.203 347.242 151.689C321.947 109.717 283.613 112.139 249.526 118.863Z" fill="#35AF00"/>
<path d="M238.03 191.918L203.541 168.926V214.91L238.03 191.918Z" fill="white"/>
</g>
<defs>
<clipPath id="clip0_207_2694">
<rect width="506.623" height="512" fill="white"/>
</clipPath>
</defs>
</svg>
