<?xml version="1.0" encoding="UTF-8"?>
<svg version="1.1" xmlns="http://www.w3.org/2000/svg" width="1536" height="339">
<path d="M0 0 C506.88 0 1013.76 0 1536 0 C1536 111.87 1536 223.74 1536 339 C1029.12 339 522.24 339 0 339 C0 227.13 0 115.26 0 0 Z " fill="#FEFEFE" transform="translate(0,0)"/>
<path d="M0 0 C0.88666855 -0.0049649 1.7733371 -0.00992981 2.68687439 -0.01504517 C5.61832457 -0.02964241 8.54972063 -0.03646473 11.48120117 -0.04199219 C13.52137758 -0.04774563 15.56155397 -0.05350334 17.60173035 -0.05926514 C21.87967175 -0.06976818 26.1575944 -0.07561541 30.43554688 -0.07910156 C35.90982939 -0.08458488 41.38386302 -0.1086125 46.85806751 -0.13707352 C51.07289854 -0.15572214 55.28766988 -0.16090669 59.50253868 -0.16243744 C61.52030485 -0.16545945 63.53807009 -0.17347269 65.55579567 -0.18662262 C68.3824404 -0.20372953 71.20848037 -0.20179149 74.03515625 -0.1953125 C74.86397308 -0.20452728 75.69278992 -0.21374207 76.54672241 -0.22323608 C83.15047239 -0.17596111 87.83859148 1.11165598 92.96166992 5.53613281 C97.48929608 10.81836332 98.66513366 14.60307274 98.61010742 21.53222656 C98.6129776 22.33217545 98.61584778 23.13212433 98.61880493 23.95631409 C98.62084052 25.64316518 98.61534606 27.33004016 98.6027832 29.0168457 C98.58674272 31.58696795 98.60263734 34.15551276 98.62182617 36.72558594 C98.61984324 38.36946959 98.61599852 40.01335227 98.61010742 41.65722656 C98.61618011 42.41990341 98.62225281 43.18258026 98.62850952 43.96836853 C98.55532774 49.57262021 97.42441194 53.81040243 93.45776367 58.02441406 C92.56250977 58.74177734 92.56250977 58.74177734 91.64916992 59.47363281 C90.75004883 60.21033203 90.75004883 60.21033203 89.83276367 60.96191406 C85.88147582 63.88491495 81.80766211 63.32401741 77.08374023 63.33813477 C76.13723602 63.34470596 75.19073181 63.35127716 74.21554565 63.35804749 C71.07362799 63.37780737 67.9317582 63.38944944 64.78979492 63.39941406 C63.18199284 63.40552735 63.18199284 63.40552735 61.5417099 63.41176414 C55.86789644 63.43263695 50.19410725 63.4469331 44.52026367 63.45629883 C38.65789577 63.4673622 32.79590755 63.50175808 26.93367386 63.54147053 C22.42807304 63.56761072 17.92256299 63.5759884 13.41689301 63.57958031 C11.25594266 63.58445343 9.09499657 63.59608798 6.93412018 63.6146183 C3.90816652 63.63895264 0.88319918 63.63805485 -2.14282227 63.63110352 C-3.0344809 63.64391357 -3.92613953 63.65672363 -4.84481812 63.66992188 C-10.32751289 63.62405035 -13.43359049 62.8040732 -17.78833008 59.16113281 C-23.00629088 53.50834194 -24.10164121 48.5605188 -24.12426758 41.00878906 C-24.13092438 40.23103622 -24.13758118 39.45328339 -24.1444397 38.65196228 C-24.15453345 37.01222081 -24.15925773 35.37243852 -24.15893555 33.73266602 C-24.16331048 31.2348216 -24.19966643 28.73874337 -24.23754883 26.24121094 C-24.24341754 24.64290965 -24.24738657 23.04460002 -24.24926758 21.44628906 C-24.26363861 20.70548599 -24.27800964 19.96468292 -24.29281616 19.20143127 C-24.23942389 13.0914241 -22.14340026 9.62466018 -18.00708008 5.29785156 C-17.43989258 4.81960937 -16.87270508 4.34136719 -16.28833008 3.84863281 C-15.72114258 3.3575 -15.15395508 2.86636719 -14.56958008 2.36035156 C-10.22607015 -0.56389744 -5.04361674 0.00675305 0 0 Z " fill="#A6EF5F" transform="translate(1317.788330078125,132.8388671875)"/>
<path d="M0 0 C1.01964844 -0.02900391 2.03929687 -0.05800781 3.08984375 -0.08789062 C9.10654401 -0.138747 12.78720601 0.17389136 17.5 4.3125 C18.18449219 5.08980469 18.18449219 5.08980469 18.8828125 5.8828125 C22.03595476 8.67037305 26.55744076 9.59488961 30.51953125 10.88671875 C35.23370315 12.52833913 38.30481831 14.2923581 41.5 18.3125 C42.40591522 24.65390655 41.39064133 27.11842832 37.5 32.3125 C35.63316698 34.24147073 33.76074501 36.09743887 31.8125 37.9375 C19.5205295 49.92259484 11.3212574 61.96978026 9.5 79.3125 C-10.76089905 80.27526711 -23.80169419 75.4655224 -38.9453125 61.8515625 C-41.1721748 58.21472708 -40.35113827 55.27417878 -39.5 51.3125 C-39.28601563 50.13171875 -39.07203125 48.9509375 -38.8515625 47.734375 C-38.61179687 46.52265625 -38.37203125 45.3109375 -38.125 44.0625 C-37.20722627 39.40113115 -36.40024924 34.74983885 -35.77734375 30.0390625 C-35.6572998 29.14993164 -35.53725586 28.26080078 -35.41357422 27.34472656 C-35.18456512 25.61139203 -34.9681387 23.87633479 -34.76611328 22.13964844 C-33.71446095 14.27360528 -30.31890349 9.53101604 -24.2265625 4.56640625 C-17.24396028 -0.50466912 -8.24748373 0.07819991 0 0 Z " fill="#4CCC01" transform="translate(858.5,139.6875)"/>
<path d="M0 0 C1.50735718 0.01426025 1.50735718 0.01426025 3.04516602 0.02880859 C14.97192205 0.36056015 24.67576775 3.62508432 33.75 11.5625 C34.55179688 12.15804687 35.35359375 12.75359375 36.1796875 13.3671875 C44.09743531 20.12976238 51.09487814 31.35503493 51.93212891 41.84423828 C52.71414124 58.54969527 50.74101024 72.79618128 39.4375 85.9375 C32.1553144 93.52311 23.74558786 98.29332076 13.75 101.5625 C12.43 101.5625 11.11 101.5625 9.75 101.5625 C9.29390102 94.378941 10.35728802 89.8647846 13.75 83.5625 C14.11609375 82.81613281 14.4821875 82.06976563 14.859375 81.30078125 C18.82382932 73.89801933 24.52892438 68.16745674 30.3125 62.17578125 C37.73622626 55.01490828 37.73622626 55.01490828 41.1875 45.75 C41.09561193 42.3562674 40.84412656 41.68154241 38.625 38.875 C34.32284477 35.79469793 29.0803897 34.54673734 24.11328125 32.89453125 C19.66978756 31.13468067 17.10394722 28.91644722 13.75 25.5625 C9.84727964 23.61113982 4.97873118 24.3776604 0.6875 24.375 C-0.83133789 24.35663086 -0.83133789 24.35663086 -2.38085938 24.33789062 C-10.06410947 24.32302941 -18.2830912 24.31048699 -24.5625 29.3125 C-25.17738281 29.78171875 -25.79226563 30.2509375 -26.42578125 30.734375 C-31.03213479 35.35059225 -32.7854663 39.60660439 -33.62890625 46.015625 C-33.72711166 46.71588806 -33.82531708 47.41615112 -33.92649841 48.13763428 C-34.23644475 50.36088741 -34.52592007 52.58612463 -34.8125 54.8125 C-35.19947771 57.73583282 -35.59626881 60.65760116 -36.00390625 63.578125 C-36.14936386 64.62401794 -36.14936386 64.62401794 -36.29776001 65.69104004 C-37.10096652 71.17043764 -38.39013149 76.35136648 -40.25 81.5625 C-48.69318082 70.5748786 -51.25512179 58.17153002 -50.25 44.5625 C-48.14292614 30.45041706 -40.95015353 18.20209085 -29.578125 9.5234375 C-20.07363506 3.21395972 -11.46194255 -0.17546249 0 0 Z " fill="#FCE766" transform="translate(858.25,116.4375)"/>
<path d="M0 0 C3.0625 1.875 3.0625 1.875 5 4 C5 4.66 5 5.32 5 6 C5.66 6 6.32 6 7 6 C7 4.35 7 2.7 7 1 C9.64 1 12.28 1 15 1 C15.17395612 6.40755017 15.30049016 11.8134482 15.38452148 17.22314453 C15.41957274 19.06034742 15.46723026 20.89735716 15.52807617 22.73388672 C16.08450164 39.96904879 16.08450164 39.96904879 11.78515625 45.125 C6.50841623 49.65237657 1.90172225 50.34425126 -4.9375 50.3125 C-5.97293945 50.33666992 -5.97293945 50.33666992 -7.02929688 50.36132812 C-11.76655571 50.36581842 -14.94235553 49.40664672 -19 47 C-19 44.69 -19 42.38 -19 40 C-17.71996094 40.23976563 -17.71996094 40.23976563 -16.4140625 40.484375 C-13.02672653 40.9959635 -9.79877974 41.20189068 -6.375 41.25 C-5.26898437 41.27578125 -4.16296875 41.3015625 -3.0234375 41.328125 C0.31397464 40.96592523 1.6884414 40.40647768 4 38 C4.33397787 34.87413125 4.33397787 34.87413125 4 32 C3.45085937 32.32226562 2.90171875 32.64453125 2.3359375 32.9765625 C-1.94202638 34.85085437 -6.42614341 34.53030221 -11 34 C-16.09263438 31.63556261 -17.87538142 29.09666338 -20 24 C-20.71864334 18.30264738 -21.46809182 11.36223302 -18.25 6.3125 C-12.7797409 0.69028926 -7.79719987 -1.0241506 0 0 Z " fill="#13181C" transform="translate(1107,150)"/>
<path d="M0 0 C3.75994125 1.39783104 6.43974405 3.25299206 8.875 6.5 C11.47721119 12.28269154 11.66988828 17.95505327 10.3125 24.125 C8.48424864 28.12974106 6.04726076 31.97636962 2 34 C0.21366185 34.1729629 -1.58088959 34.2668055 -3.375 34.3125 C-4.80972656 34.36857422 -4.80972656 34.36857422 -6.2734375 34.42578125 C-9 34 -9 34 -13 30 C-13.33 35.61 -13.66 41.22 -14 47 C-16.64 47 -19.28 47 -22 47 C-22 31.82 -22 16.64 -22 1 C-19.36 1 -16.72 1 -14 1 C-13.67 1.99 -13.34 2.98 -13 4 C-12.34 3.34 -11.68 2.68 -11 2 C-7.2586552 -0.49422987 -4.32069988 -0.81166848 0 0 Z " fill="#6B7A90" transform="translate(451,159)"/>
<path d="M0 0 C2.64 0 5.28 0 8 0 C8 15.51 8 31.02 8 47 C5.36 47 2.72 47 0 47 C-0.33 46.01 -0.66 45.02 -1 44 C-1.82177734 44.72896484 -1.82177734 44.72896484 -2.66015625 45.47265625 C-6.77274369 48.15716658 -11.26314835 47.61938031 -16 47 C-19.87155909 44.98356298 -21.9412501 42.3758187 -23.4921875 38.2578125 C-24.9223314 31.89917269 -25.11707996 25.35827991 -22.3125 19.4375 C-21.549375 18.633125 -20.78625 17.82875 -20 17 C-19.2575 16.21625 -18.515 15.4325 -17.75 14.625 C-14.18622953 12.51913563 -10.99493188 12.19812398 -7 13 C-5.02 13.99 -3.04 14.98 -1 16 C-0.67 10.72 -0.34 5.44 0 0 Z " fill="#6A798F" transform="translate(598,146)"/>
<path d="M0 0 C2.64 0 5.28 0 8 0 C8 15.51 8 31.02 8 47 C5.36 47 2.72 47 0 47 C-0.33 46.01 -0.66 45.02 -1 44 C-1.82177734 44.72896484 -1.82177734 44.72896484 -2.66015625 45.47265625 C-6.76947928 48.15503572 -11.26648168 47.62597791 -16 47 C-20.45874199 44.58484809 -22.04431454 41.58687231 -24 37 C-24.7740172 30.8636474 -24.94526858 25.03057696 -22.3125 19.375 C-21.549375 18.59125 -20.78625 17.8075 -20 17 C-19.2575 16.21625 -18.515 15.4325 -17.75 14.625 C-14.07322827 12.45236216 -11.17514046 12.27462206 -7 13 C-4.63706998 14.15632746 -2.85016245 15.14983755 -1 17 C-0.67 11.39 -0.34 5.78 0 0 Z " fill="#69798F" transform="translate(307,146)"/>
<path d="M0 0 C2.64 0 5.28 0 8 0 C8 5.61 8 11.22 8 17 C9.98 15.68 11.96 14.36 14 13 C18.23497105 11.94125724 21.38666823 12.69333411 25.25 14.625 C29.40888307 18.21676265 31.68699559 20.58957353 32.41796875 26.21875 C32.68272128 32.91627334 32.39726777 37.99153342 28.484375 43.546875 C25.31227407 46.65219485 22.35985497 47.29256164 18 47.3125 C17.154375 47.32925781 16.30875 47.34601563 15.4375 47.36328125 C12.54669465 46.93244007 11.17173725 45.90529726 9 44 C8.67 44.99 8.34 45.98 8 47 C5.36 47 2.72 47 0 47 C0 31.49 0 15.98 0 0 Z " fill="#6A798F" transform="translate(701,146)"/>
<path d="M0 0 C22 0 22 0 31 4 C33.75968012 7.56739137 34.85338081 9.99199308 35.5 14.4375 C34.65788875 20.43754267 32.75015971 24.40894572 28.25 28.5 C22.34812773 31.47047876 14.28255397 30.20768773 8 30 C8 35.61 8 41.22 8 47 C5.36 47 2.72 47 0 47 C0 31.49 0 15.98 0 0 Z " fill="#68788E" transform="translate(121,146)"/>
<path d="M0 0 C2.64 0 5.28 0 8 0 C8 15.51 8 31.02 8 47 C5.69 47 3.38 47 1 47 C0.67 45.68 0.34 44.36 0 43 C-0.45375 43.474375 -0.9075 43.94875 -1.375 44.4375 C-4.70353 47.63800962 -8.03007555 47.39485483 -12.45703125 47.34375 C-16.68982617 46.77157496 -18.16753789 45.17788432 -21 42 C-24.74499793 36.75700289 -24.78425141 31.21232858 -24 25 C-22.66437847 20.46492351 -20.74276954 17.67524504 -17.25 14.5 C-12.97501218 12.5269287 -10.68745782 12.47917135 -6 13 C-4.35 13.99 -2.7 14.98 -1 16 C-0.67 10.72 -0.34 5.44 0 0 Z " fill="#69788F" transform="translate(671,146)"/>
<path d="M0 0 C4.25855629 1.98893024 7.05992212 4.26144726 9.63671875 8.28125 C11.64810822 14.3154184 11.71428377 21.04630033 8.94921875 26.78125 C4.9373237 31.11843384 1.76168023 34.02674713 -4.2890625 34.51953125 C-13.40302728 34.71926058 -13.40302728 34.71926058 -17.92578125 32.65625 C-22.83556208 27.87236098 -25.47559674 23.3277035 -25.67578125 16.46875 C-25.61202586 11.59500469 -24.66019604 9.01196937 -21.36328125 5.28125 C-14.93401458 -0.7543881 -8.72342952 -2.65307609 0 0 Z " fill="#14191D" transform="translate(1011.36328125,150.71875)"/>
<path d="M0 0 C4.8370512 2.20283167 7.70702683 4.98413197 10.74609375 9.3125 C12.41896845 14.33112411 12.77956724 19.59210118 10.875 24.60546875 C8.23151268 29.22507118 4.99949849 32.83526844 -0.25390625 34.3125 C-6.19395088 35.02441546 -11.35109046 35.2138338 -16.81640625 32.625 C-20.88359825 28.76638195 -23.98487357 25.60815029 -24.45703125 19.82421875 C-24.54954214 14.2504377 -24.58845835 10.02686677 -21.25390625 5.3125 C-14.93535951 -0.52000468 -8.418614 -2.56789612 0 0 Z " fill="#13181C" transform="translate(1268.25390625,150.6875)"/>
<path d="M0 0 C3.3 0 6.6 0 10 0 C10 9.9 10 19.8 10 30 C13.3 29.34 16.6 28.68 20 28 C21.80330533 24.39338934 22.46599103 21.91606575 23 18 C25.97 18 28.94 18 32 18 C32.38072204 24.09155257 32.06555744 27.88791793 28.97265625 33.17578125 C27.49430021 35.93910239 27.49430021 35.93910239 27 39 C28.68416813 41.76495214 28.68416813 41.76495214 31 44.5 C33.3125 47.34375 33.3125 47.34375 35 50 C34.75 52.34375 34.75 52.34375 34 54 C25.95267047 51.98816762 20.30288155 46.92119218 15.421875 40.41796875 C13.83810585 38.59592779 13.83810585 38.59592779 10 38 C10 42.62 10 47.24 10 52 C6.7 52 3.4 52 0 52 C0 34.84 0 17.68 0 0 Z " fill="#14191D" transform="translate(1206,133)"/>
<path d="M0 0 C5.67458978 1.92721917 9.32050871 5.64101742 12 11 C12.75252536 17.98773551 12.57788434 23.48026598 8.58203125 29.37890625 C5.6220175 32.41200676 3.07143745 33.86474428 -1.15625 34.3984375 C-2.2596875 34.39070313 -3.363125 34.38296875 -4.5 34.375 C-5.6034375 34.38273437 -6.706875 34.39046875 -7.84375 34.3984375 C-12.2061486 33.84773867 -14.80417522 32.47042158 -17.58203125 29.0546875 C-20.64059852 23.63665406 -22.19141767 19.22184783 -21 13 C-19.21892331 7.65676994 -16.76947651 4.13781349 -12 1 C-8.30265586 -0.84867207 -4.0436816 -0.33645425 0 0 Z " fill="#6B7A90" transform="translate(509,159)"/>
<path d="M0 0 C3.79611073 2.7213498 5.51292194 4.51412513 7.65234375 8.79296875 C7.65234375 12.09296875 7.65234375 15.39296875 7.65234375 18.79296875 C0.06234375 18.79296875 -7.52765625 18.79296875 -15.34765625 18.79296875 C-12.7923049 23.51001052 -12.7923049 23.51001052 -10.34765625 25.79296875 C-4.80668698 26.32096499 -4.80668698 26.32096499 0.15234375 24.29296875 C0.64734375 23.79796875 1.14234375 23.30296875 1.65234375 22.79296875 C4.27421869 23.84171873 5.44605736 24.44228188 6.90234375 26.91796875 C7.14984375 27.53671875 7.39734375 28.15546875 7.65234375 28.79296875 C0.23419114 33.90325166 -5.42016551 34.58456891 -14.34765625 33.79296875 C-19.38125258 31.40863365 -22.84762412 27.79303302 -25.34765625 22.79296875 C-26.05093514 16.50797009 -26.54507124 10.52784756 -22.78515625 5.16796875 C-17.118803 -1.09275721 -7.81852382 -4.01984003 0 0 Z " fill="#161A1E" transform="translate(1154.34765625,151.20703125)"/>
<path d="M0 0 C2.64 0 5.28 0 8 0 C8.66 1.65 9.32 3.3 10 5 C10.804375 4.175 11.60875 3.35 12.4375 2.5 C15.77980357 -0.25109421 18.46387149 -0.79102366 22.74609375 -0.56640625 C26.71687773 0.43145108 29.35853734 2.96546254 32 6 C33.38308781 8.76617563 33.11210196 11.01018 33.09765625 14.1015625 C33.09443359 15.31328125 33.09121094 16.525 33.08789062 17.7734375 C33.07532227 19.67996094 33.07532227 19.67996094 33.0625 21.625 C33.05798828 22.90375 33.05347656 24.1825 33.04882812 25.5 C33.03701203 28.66671292 33.02053815 31.83333356 33 35 C29.7 35 26.4 35 23 35 C22.95101563 33.36289063 22.90203125 31.72578125 22.8515625 30.0390625 C22.77654361 27.901024 22.7009954 25.76300402 22.625 23.625 C22.5940625 22.54476562 22.563125 21.46453125 22.53125 20.3515625 C22.49257812 19.3203125 22.45390625 18.2890625 22.4140625 17.2265625 C22.36693115 15.79691162 22.36693115 15.79691162 22.31884766 14.33837891 C22.21444204 11.81104824 22.21444204 11.81104824 20 10 C15.92121996 9.51765696 15.92121996 9.51765696 12.34057617 11.20043945 C10.56821603 13.5796175 10.5735411 15.15547779 10.48828125 18.10546875 C10.45283203 19.08837891 10.41738281 20.07128906 10.38085938 21.08398438 C10.34702148 22.62022461 10.34702148 22.62022461 10.3125 24.1875 C10.27833984 25.22326172 10.24417969 26.25902344 10.20898438 27.32617188 C10.12648241 29.88373264 10.06156544 32.44184963 10 35 C6.7 35 3.4 35 0 35 C0 23.45 0 11.9 0 0 Z " fill="#151A1E" transform="translate(1047,150)"/>
<path d="M0 0 C3.15562997 2.9128892 4.31993884 4.77909501 4.66455078 9.09082031 C4.65407715 10.15913086 4.64360352 11.22744141 4.6328125 12.328125 C4.62636719 13.48828125 4.61992187 14.6484375 4.61328125 15.84375 C4.59652344 17.0503125 4.57976562 18.256875 4.5625 19.5 C4.55347656 20.72203125 4.54445313 21.9440625 4.53515625 23.203125 C4.51159513 26.21894782 4.47869706 29.23437492 4.4375 32.25 C1.7975 32.25 -0.8425 32.25 -3.5625 32.25 C-3.8925 31.26 -4.2225 30.27 -4.5625 29.25 C-5.38427734 29.97703125 -5.38427734 29.97703125 -6.22265625 30.71875 C-10.34785158 33.41837699 -14.81544488 32.9732939 -19.5625 32.25 C-22.75 30.3125 -22.75 30.3125 -24.5625 27.25 C-25.30149749 24.05729991 -25.32669833 21.43994909 -24.5625 18.25 C-21.65744088 14.11249156 -19.78238239 13.49219191 -14.82421875 12.5078125 C-11.08062675 11.95057899 -7.33308351 11.57141106 -3.5625 11.25 C-4.2225 9.6 -4.8825 7.95 -5.5625 6.25 C-8.86817489 5.39612895 -8.86817489 5.39612895 -12.5625 5.25 C-13.91682675 6.56200404 -15.24983482 7.89631404 -16.5625 9.25 C-20.3125 9.5 -20.3125 9.5 -23.5625 9.25 C-23.29767462 5.36589437 -23.02855993 3.7037952 -20.1875 0.9375 C-14.09087206 -2.98176082 -6.43907682 -3.16305528 0 0 Z " fill="#6A7990" transform="translate(403.5625,160.75)"/>
<path d="M0 0 C3.96734881 1.85288269 5.98101366 3.08168705 7.6328125 7.24609375 C7.85986328 10.08691406 7.85986328 10.08691406 7.828125 13.32421875 C7.82167969 14.484375 7.81523437 15.64453125 7.80859375 16.83984375 C7.79183594 18.04640625 7.77507812 19.25296875 7.7578125 20.49609375 C7.74878906 21.718125 7.73976563 22.94015625 7.73046875 24.19921875 C7.70690763 27.21504157 7.67400956 30.23046867 7.6328125 33.24609375 C4.9928125 33.24609375 2.3528125 33.24609375 -0.3671875 33.24609375 C-0.6971875 32.25609375 -1.0271875 31.26609375 -1.3671875 30.24609375 C-2.18896484 30.973125 -2.18896484 30.973125 -3.02734375 31.71484375 C-7.15253908 34.41447074 -11.62013238 33.96938765 -16.3671875 33.24609375 C-19.5546875 31.30859375 -19.5546875 31.30859375 -21.3671875 28.24609375 C-22.10577182 25.05517866 -22.14218549 22.43283923 -21.3671875 19.24609375 C-17.76831048 14.41331603 -14.35509624 13.86705577 -8.4921875 12.93359375 C-6.45280197 12.68494384 -4.41159905 12.4493216 -2.3671875 12.24609375 C-2.0371875 10.92609375 -1.7071875 9.60609375 -1.3671875 8.24609375 C-4.26180651 5.88470073 -4.26180651 5.88470073 -7.9296875 6.43359375 C-11.62544502 6.89449137 -11.62544502 6.89449137 -13.3671875 10.24609375 C-16.9921875 10.43359375 -16.9921875 10.43359375 -20.3671875 10.24609375 C-20.09930875 6.31720546 -19.84281653 4.69733154 -16.9296875 1.93359375 C-11.65092257 -1.54266608 -6.08144343 -1.93682934 0 0 Z " fill="#6A7990" transform="translate(342.3671875,159.75390625)"/>
<path d="M0 0 C4.98669007 2.49334503 8.49675474 5.99350949 11 11 C11 13.64 11 16.28 11 19 C3.08 19 -4.84 19 -13 19 C-11.68 21.64 -10.36 24.28 -9 27 C-7.576875 27.061875 -6.15375 27.12375 -4.6875 27.1875 C-3.88699219 27.22230469 -3.08648437 27.25710937 -2.26171875 27.29296875 C0.53040367 26.93129486 1.10344033 25.97901879 3 24 C6.6875 23.8125 6.6875 23.8125 10 24 C9.70179167 27.57849992 9.25754642 28.76226484 6.5625 31.25 C1.05106698 35.01390548 -4.4682935 34.57212028 -11 34 C-15.56893694 31.87308108 -17.84617435 29.53436979 -20 25 C-21.47138483 19.94928896 -22.11981939 14.74645359 -20.09375 9.77734375 C-15.33411182 1.61578468 -9.38239516 -1.51279661 0 0 Z " fill="#69798F" transform="translate(253,159)"/>
<path d="M0 0 C3.98868891 2.63083737 6.30525277 5.49388332 7.8359375 10.0859375 C7.8359375 12.7259375 7.8359375 15.3659375 7.8359375 18.0859375 C-0.0840625 18.0859375 -8.0040625 18.0859375 -16.1640625 18.0859375 C-14.8440625 20.7259375 -13.5240625 23.3659375 -12.1640625 26.0859375 C-8.5340625 26.0859375 -4.9040625 26.0859375 -1.1640625 26.0859375 C-0.8340625 25.0959375 -0.5040625 24.1059375 -0.1640625 23.0859375 C2.4759375 23.0859375 5.1159375 23.0859375 7.8359375 23.0859375 C5.75964647 28.16131557 3.60620743 30.40266066 -1.1640625 33.0859375 C-4.89206145 34.32860382 -8.29189244 34.61496263 -12.1640625 34.0859375 C-17.11926771 31.51304249 -20.65523213 28.10359824 -23.1640625 23.0859375 C-24.36751787 9.83073622 -24.36751787 9.83073622 -20.9765625 4.8984375 C-15.0831753 -0.9949497 -8.16535621 -3.44890497 0 0 Z " fill="#69788F" transform="translate(635.1640625,159.9140625)"/>
<path d="M0 0 C3.5 1.8125 3.5 1.8125 6 4 C6.61875 4.4125 7.2375 4.825 7.875 5.25 C9.81591825 8.26920616 9.17264965 11.48945702 9 15 C6.03 15 3.06 15 0 15 C-0.4640625 13.7934375 -0.4640625 13.7934375 -0.9375 12.5625 C-1.76335345 10.10919595 -1.76335345 10.10919595 -3 9 C-6.48055874 9.17567358 -6.48055874 9.17567358 -10 10 C-12.47463539 13.71195308 -12.43346407 16.70003643 -12 21 C-10.99124788 23.81009519 -10.66604583 24.66697708 -8 26 C-5.89044938 26.19738723 -5.89044938 26.19738723 -3.5625 26.1875 C-2.38880859 26.20876953 -2.38880859 26.20876953 -1.19140625 26.23046875 C1.29205987 26.14086064 1.29205987 26.14086064 4 24 C4.99 24 5.98 24 7 24 C8.6875 26 8.6875 26 10 28 C8.96679951 30.99628141 8.10407032 31.93675963 5.3515625 33.609375 C-0.5079856 36.04060941 -8.10940915 36.4509699 -14.13671875 34.203125 C-15.6875 33.1875 -15.6875 33.1875 -18 31 C-18.5775 30.525625 -19.155 30.05125 -19.75 29.5625 C-23.32562146 25.09297317 -23.43035014 20.13974102 -23.3125 14.65234375 C-22.69424015 9.40486328 -19.69169335 6.48968812 -15.875 3.1875 C-10.75266559 -0.70992836 -6.3175837 -0.66031242 0 0 Z " fill="#15191E" transform="translate(1190,150)"/>
<path d="M0 0 C4.25531915 3.82978723 4.25531915 3.82978723 5.5 6.25 C5.6875 10 5.6875 10 5.5 13.25 C2.53 13.25 -0.44 13.25 -3.5 13.25 C-3.9640625 12.0434375 -3.9640625 12.0434375 -4.4375 10.8125 C-5.26335345 8.35919595 -5.26335345 8.35919595 -6.5 7.25 C-9.98055874 7.42567358 -9.98055874 7.42567358 -13.5 8.25 C-15.98785237 11.98177856 -16.00390209 14.93323873 -15.5 19.25 C-14.79574678 22.34235783 -14.79574678 22.34235783 -12.5 24.25 C-7.23368132 25.23098093 -2.41989158 24.26841706 2.5 22.25 C3.82 23.57 5.14 24.89 6.5 26.25 C5.53259368 29.36719813 4.49234055 30.25476588 1.6875 32 C-3.80475761 34.08844249 -9.73838755 33.91822825 -15.5 33.25 C-20.00665768 31.11526742 -22.6741532 28.33177871 -25.5 24.25 C-27.28786425 18.88640726 -27.73728551 12.37927815 -25.62890625 7.046875 C-19.75192838 -1.81676376 -9.57216674 -4.78608337 0 0 Z " fill="#15191D" transform="translate(975.5,151.75)"/>
<path d="M0 0 C2.97 0 5.94 0 9 0 C9.24234375 0.83402344 9.4846875 1.66804687 9.734375 2.52734375 C11.73841828 9.25630445 13.93045202 15.68130283 17 22 C17.32613281 20.99839844 17.65226563 19.99679688 17.98828125 18.96484375 C18.42952315 17.6223418 18.87093871 16.27989693 19.3125 14.9375 C19.52583984 14.28072266 19.73917969 13.62394531 19.95898438 12.94726562 C21.4210244 8.51750256 23.10888054 4.26472394 25 0 C27.64 0 30.28 0 33 0 C30.47681093 7.77910541 27.70458959 15.4625074 24.86645508 23.13110352 C24.32779194 24.59267508 23.79365195 26.05592116 23.26391602 27.52075195 C22.48990837 29.65981464 21.70163505 31.79313101 20.91015625 33.92578125 C20.6777272 34.57686356 20.44529816 35.22794586 20.20582581 35.89875793 C18.74974517 39.76441336 17.2262948 42.39343657 14 45 C11.24921116 45.91692961 9.64051087 46.10886083 6.8125 46.0625 C5.554375 46.041875 4.29625 46.02125 3 46 C3 43.69 3 41.38 3 39 C6.465 38.505 6.465 38.505 10 38 C11.19459015 31.73364115 10.7737066 27.89496906 8.3125 22.0625 C8.03575439 21.36664795 7.75900879 20.6707959 7.47387695 19.95385742 C5.68753725 15.50537896 3.75539489 11.12553374 1.74609375 6.7734375 C0.81467194 4.559482 0.30697975 2.37909308 0 0 Z " fill="#6A798F" transform="translate(735,160)"/>
<path d="M0 0 C4.40526724 1.88277923 7.33986494 4.00979741 10 8 C10.125 10.6875 10.125 10.6875 10 13 C7.36 13 4.72 13 2 13 C1.87625 12.360625 1.7525 11.72125 1.625 11.0625 C1.41875 10.381875 1.2125 9.70125 1 9 C-1.28705831 7.85647084 -2.59264762 7.89665561 -5.125 7.9375 C-6.40375 7.958125 -7.6825 7.97875 -9 8 C-12.01496811 13.02494685 -12.63533325 16.28200075 -12 22 C-10.56348718 25.08874323 -10.56348718 25.08874323 -8 27 C-3.8865729 27.58763244 -2.49565336 27.33043558 1 25 C1.33 24.01 1.66 23.02 2 22 C4.64 22 7.28 22 10 22 C9.90369998 26.04460104 9.01856597 28.50389455 6.25 31.375 C1.85831751 34.83015393 -2.5547309 34.73091442 -7.96875 34.4453125 C-12.02438624 33.84951027 -14.12441219 32.94932083 -17 30 C-20.56560342 25.11838522 -21.65418256 20.39863255 -21.38671875 14.39453125 C-20.56624971 9.31425326 -18.19462546 6.08085161 -14.375 2.625 C-9.68613689 -0.58316949 -5.59249539 -0.74186163 0 0 Z " fill="#6B7A90" transform="translate(218,159)"/>
<path d="M0 0 C16.66666667 0 16.66666667 0 21.875 4.6875 C23.54011474 8.11023585 23.79459521 11.3259084 23 15 C20.46546343 18.21954645 18.88702695 19.70432435 15 21 C13.60560336 21.06665376 12.20830125 21.08538199 10.8125 21.0625 C8.9253125 21.0315625 8.9253125 21.0315625 7 21 C7 23.97 7 26.94 7 30 C4.69 30 2.38 30 0 30 C0 20.1 0 10.2 0 0 Z " fill="#1A251D" transform="translate(1352,150)"/>
<path d="M0 0 C2.64 0 5.28 0 8 0 C9.14702187 2.93703729 10.2924112 5.87470857 11.4375 8.8125 C11.76298828 9.64587891 12.08847656 10.47925781 12.42382812 11.33789062 C12.89272461 12.54155273 12.89272461 12.54155273 13.37109375 13.76953125 C13.65911865 14.50792236 13.94714355 15.24631348 14.24389648 16.00708008 C14.86971645 17.65660167 15.4420957 19.32628709 16 21 C18.8454888 16.76931724 20.2573301 12.52242481 21.6875 7.6875 C21.91244141 6.94693359 22.13738281 6.20636719 22.36914062 5.44335938 C22.91877951 3.63072049 23.4602267 1.81560111 24 0 C26.97 0 29.94 0 33 0 C29.14151918 11.05550533 25.15505614 22.05245847 21 33 C18.03 33 15.06 33 12 33 C0 3.26213592 0 3.26213592 0 0 Z " fill="#68788E" transform="translate(523,160)"/>
<path d="M0 0 C2.31 0 4.62 0 7 0 C7 2.97 7 5.94 7 9 C9.31 9 11.62 9 14 9 C14 10.98 14 12.96 14 15 C12.02 15 10.04 15 8 15 C8 21.6 8 28.2 8 35 C9.98 35 11.96 35 14 35 C14 37.31 14 39.62 14 42 C12.60596244 42.10933628 11.20936224 42.18619553 9.8125 42.25 C9.03519531 42.29640625 8.25789063 42.3428125 7.45703125 42.390625 C3.71932337 41.79639481 2.41831088 40.96328235 0 38 C-0.62289278 34.06878578 -0.46879077 30.21738103 -0.3125 26.25 C-0.27866211 24.63158203 -0.27866211 24.63158203 -0.24414062 22.98046875 C-0.1852565 20.3189065 -0.10307001 17.66015772 0 15 C-1.98 15 -3.96 15 -6 15 C-6 13.02 -6 11.04 -6 9 C-4.02 9 -2.04 9 0 9 C0 6.03 0 3.06 0 0 Z " fill="#68788E" transform="translate(360,151)"/>
<path d="M0 0 C1.134375 0.020625 2.26875 0.04125 3.4375 0.0625 C3.60765625 0.66835937 3.7778125 1.27421875 3.953125 1.8984375 C5.25984608 6.41635614 6.68109147 10.78550663 8.5 15.125 C10.39883847 19.71567845 11.49426003 24.18909351 12.4375 29.0625 C10.4575 29.0625 8.4775 29.0625 6.4375 29.0625 C6.1075 27.0825 5.7775 25.1025 5.4375 23.0625 C1.8075 23.3925 -1.8225 23.7225 -5.5625 24.0625 C-6.5525 26.5375 -6.5525 26.5375 -7.5625 29.0625 C-9.5425 29.0625 -11.5225 29.0625 -13.5625 29.0625 C-12.89769127 22.96495741 -10.67939573 17.46043727 -8.5625 11.75 C-8.00949219 10.22922852 -8.00949219 10.22922852 -7.4453125 8.67773438 C-4.28779379 0.07522445 -4.28779379 0.07522445 0 0 Z " fill="#151E1B" transform="translate(1331.5625,149.9375)"/>
<path d="M0 0 C3.3 0 6.6 0 10 0 C10 11.55 10 23.1 10 35 C6.7 35 3.4 35 0 35 C0 23.45 0 11.9 0 0 Z " fill="#181C20" transform="translate(1029,150)"/>
<path d="M0 0 C0 2.64 0 5.28 0 8 C-3.02734375 8.24414062 -3.02734375 8.24414062 -6.0546875 8.48828125 C-8.39519216 8.87393036 -8.39519216 8.87393036 -10 12 C-10.3663859 14.41713479 -10.3663859 14.41713479 -10.4140625 17.10546875 C-10.47207031 18.57983398 -10.47207031 18.57983398 -10.53125 20.08398438 C-10.5621875 21.10814453 -10.593125 22.13230469 -10.625 23.1875 C-10.68300781 24.74114258 -10.68300781 24.74114258 -10.7421875 26.32617188 C-10.83648296 28.88393622 -10.92208202 31.44169287 -11 34 C-13.64 34 -16.28 34 -19 34 C-19 23.11 -19 12.22 -19 1 C-16.36 1 -13.72 1 -11 1 C-10.67 1.66 -10.34 2.32 -10 3 C-9.195625 2.2575 -9.195625 2.2575 -8.375 1.5 C-5.40641555 -0.37489544 -3.44687573 -0.23501425 0 0 Z " fill="#6D7C92" transform="translate(486,159)"/>
<path d="M0 0 C0.9075 0.0825 1.815 0.165 2.75 0.25 C2.75 2.89 2.75 5.53 2.75 8.25 C-0.27734375 8.49414062 -0.27734375 8.49414062 -3.3046875 8.73828125 C-5.64519216 9.12393036 -5.64519216 9.12393036 -7.25 12.25 C-7.6163859 14.66713479 -7.6163859 14.66713479 -7.6640625 17.35546875 C-7.70273438 18.33837891 -7.74140625 19.32128906 -7.78125 20.33398438 C-7.82765625 21.87022461 -7.82765625 21.87022461 -7.875 23.4375 C-7.91367188 24.47326172 -7.95234375 25.50902344 -7.9921875 26.57617188 C-8.08648296 29.13393622 -8.17208202 31.69169287 -8.25 34.25 C-10.56 34.25 -12.87 34.25 -15.25 34.25 C-15.25 23.36 -15.25 12.47 -15.25 1.25 C-12.94 1.25 -10.63 1.25 -8.25 1.25 C-7.92 2.24 -7.59 3.23 -7.25 4.25 C-6.71375 3.59 -6.1775 2.93 -5.625 2.25 C-3.25 0.25 -3.25 0.25 0 0 Z " fill="#68778E" transform="translate(176.25,158.75)"/>
<path d="M0 0 C2.88258588 0.65701649 4.18570607 2.0989665 5.90234375 4.43359375 C7.50775214 7.64441053 7.38697684 10.9506973 6.90234375 14.43359375 C3.90234375 19.93359375 3.90234375 19.93359375 0.90234375 21.43359375 C-2.77777958 21.83360715 -4.44658515 21.94389272 -7.41015625 19.62109375 C-10.71403359 15.33828979 -10.72560667 10.63011102 -10.09765625 5.43359375 C-7.70044242 0.53928218 -5.16574529 -0.31744803 0 0 Z " fill="#F8F9FA" transform="translate(447.09765625,165.56640625)"/>
<path d="M0 0 C2.9375 1.9375 2.9375 1.9375 5 5 C5.83017625 9.37226158 5.50048758 12.87986112 3.6875 16.9375 C1.38036338 19.75733364 -0.31894013 20.89856555 -3.9375 21.4375 C-7 21 -7 21 -9.3125 18.625 C-12.04833468 14.36925716 -12.55852479 11.02672307 -12 6 C-9.19485735 0.00719524 -6.515253 -0.6625681 0 0 Z " fill="#F9F9FA" transform="translate(667,166)"/>
<path d="M0 0 C2.9452825 0.83411321 4.15587974 2.14802047 6 4.56640625 C6.99406662 9.8802771 6.78368772 14.9363358 4.4375 19.81640625 C2 21.56640625 2 21.56640625 -1.4375 22.19140625 C-5 21.56640625 -5 21.56640625 -7.9375 19.75390625 C-10.95662001 15.08799351 -10.85116344 10.9733207 -10 5.56640625 C-7.65066268 0.57406445 -5.14746508 0.01005364 0 0 Z " fill="#F9FAFB" transform="translate(719,165.43359375)"/>
<path d="M0 0 C4.29824781 0.67867071 5.89338511 1.08456242 8.5625 4.5625 C9.32390856 9.78925249 9.52706812 15.01083985 6.5625 19.5625 C3.07381349 21.88829101 1.66531481 21.98115457 -2.4375 21.5625 C-5.5734157 19.78265595 -6.27852736 19.03941793 -7.4375 15.5625 C-7.93496658 10.75093796 -8.06353732 6.81457464 -5.875 2.4375 C-3.4375 0.5625 -3.4375 0.5625 0 0 Z " fill="#FAFBFB" transform="translate(589.4375,165.4375)"/>
<path d="M0 0 C2.9375 1.875 2.9375 1.875 5 5 C5.77534154 9.99933762 5.7825083 14.64354762 3 19 C-0.48868651 21.32579101 -1.89718519 21.41865457 -6 21 C-9.1359157 19.22015595 -9.84102736 18.47691793 -11 15 C-11.88298768 5.51873881 -11.88298768 5.51873881 -9.4375 1.3125 C-5.98664949 -0.54565027 -3.86411566 -0.61012353 0 0 Z " fill="#FAFBFB" transform="translate(302,166)"/>
<path d="M0 0 C3.5625 0.5625 3.5625 0.5625 6.5 2.5 C9.270413 6.61364355 9.37694877 9.73711 8.5625 14.5625 C6.93849816 18.19717079 5.90136956 19.33658696 2.5625 21.5625 C-1.14288801 22.1143663 -2.76748887 22.05619241 -5.8125 19.8125 C-8.24483893 14.94782215 -8.43539291 9.89682459 -7.4375 4.5625 C-4.97063466 1.39005812 -4.03011603 0.65947353 0 0 Z " fill="#FAFBFC" transform="translate(504.4375,165.4375)"/>
<path d="M0 0 C12.1944491 -0.49270501 12.1944491 -0.49270501 15.88671875 1.765625 C18.09446534 4.09987833 18.68633329 4.85973576 18.625 8 C18.63789063 8.66 18.65078125 9.32 18.6640625 10 C17.60342502 13.19439053 15.82648355 14.2712171 13 16 C8.59901209 16.51594231 4.44953234 16.17977908 0 16 C0 10.72 0 5.44 0 0 Z " fill="#F7F8F9" transform="translate(129,153)"/>
<path d="M0 0 C2.64 0 5.28 0 8 0 C8 10.89 8 21.78 8 33 C5.36 33 2.72 33 0 33 C0 22.11 0 11.22 0 0 Z " fill="#67768D" transform="translate(560,160)"/>
<path d="M0 0 C2.64 0 5.28 0 8 0 C8 10.89 8 21.78 8 33 C5.36 33 2.72 33 0 33 C0 22.11 0 11.22 0 0 Z " fill="#68778E" transform="translate(184,160)"/>
<path d="M0 0 C4.10828244 1.3445288 5.38090401 2.34086338 7.4375 6.125 C8.06097637 11.11281093 7.49983637 14.12040628 4.4375 18.125 C1.30889505 19.68930248 -1.11852925 19.48127284 -4.5625 19.125 C-7.2630597 16.97840127 -8.32504389 15.36380404 -8.9765625 11.96484375 C-9.24684806 7.70428986 -8.89489384 5.62862704 -6.5 2 C-3.5625 0.125 -3.5625 0.125 0 0 Z " fill="#F3F4F4" transform="translate(1262.5625,157.875)"/>
<path d="M0 0 C4.17862962 0.87054784 5.56887157 2.12131491 8 5.625 C8.94509348 10.16966691 8.54359358 13.55955659 6.4375 17.6875 C4 19.625 4 19.625 0.5 20.1875 C-3.46545673 19.55019445 -4.60063397 18.7626325 -7 15.625 C-8.61350378 12.39799243 -8.58705984 9.11400338 -8 5.625 C-5.56226471 2.18349135 -4.14182881 0.862881 0 0 Z " fill="#F3F3F4" transform="translate(1004,157.375)"/>
<path d="M0 0 C1.94140625 0.33984375 1.94140625 0.33984375 4.44140625 1.83984375 C6.53298828 5.32581379 6.82903385 8.44200081 5.94140625 12.33984375 C3.81640625 15.33984375 3.81640625 15.33984375 0.94140625 17.33984375 C-3.20083681 17.91975778 -4.54034864 17.68534049 -8.05859375 15.33984375 C-8.97875223 12.57936832 -9.2512662 10.70622106 -9.30859375 7.83984375 C-9.334375 7.06640625 -9.36015625 6.29296875 -9.38671875 5.49609375 C-9.05859375 3.33984375 -9.05859375 3.33984375 -7.7890625 1.5859375 C-5.32414067 -0.18902878 -2.96464181 -0.13649364 0 0 Z " fill="#F9F9F9" transform="translate(1106.05859375,158.66015625)"/>
<path d="M0 0 C2.31 0 4.62 0 7 0 C7.02465746 4.1117256 7.04283959 8.22342278 7.05493164 12.33520508 C7.0599708 13.73495228 7.06680216 15.1346942 7.07543945 16.53442383 C7.0875232 18.54245777 7.09269807 20.55052957 7.09765625 22.55859375 C7.10289307 23.76829834 7.10812988 24.97800293 7.11352539 26.22436523 C7 29 7 29 6 30 C4.02 30 2.04 30 0 30 C0 20.1 0 10.2 0 0 Z " fill="#233221" transform="translate(1383,150)"/>
<path d="M0 0 C0.66 0.66 1.32 1.32 2 2 C1.175 2.45375 0.35 2.9075 -0.5 3.375 C-1.325 3.91125 -2.15 4.4475 -3 5 C-3 5.66 -3 6.32 -3 7 C-2.01 7.66 -1.02 8.32 0 9 C-0.66 10.32 -1.32 11.64 -2 13 C-2.66 13 -3.32 13 -4 13 C-1.9859524 16.0210714 -0.36720387 17.60667426 3 19 C-0.22878519 20.6143926 -3.50903682 20.5818272 -7 20 C-10.64184981 17.44295652 -11.77792202 15.77727291 -13 11.5 C-13 7.53858526 -12.46036418 6.05424519 -10 3 C-6.82605357 -0.17394643 -4.42083124 -0.48052513 0 0 Z " fill="#F2F9EF" transform="translate(855,145)"/>
<path d="M0 0 C2.6044915 0.274157 4.54623418 0.73399935 6.8125 2.0625 C8.73881079 5.20542814 8.51853637 8.46969072 8 12 C6.8125 14.5 6.8125 14.5 5 16 C2.5 16.4375 2.5 16.4375 0 16 C-1.8125 14.625 -1.8125 14.625 -3 13 C-3 12.34 -3 11.68 -3 11 C-2.01 10.34 -1.02 9.68 0 9 C0 8.34 0 7.68 0 7 C-0.99 6.34 -1.98 5.68 -3 5 C-1.125 1.125 -1.125 1.125 0 0 Z " fill="#151D1C" transform="translate(854,147)"/>
<path d="M0 0 C0.99 0.66 1.98 1.32 3 2 C3.4375 5.4375 3.4375 5.4375 3 9 C0.92308202 11.38460953 -0.40556916 11.8959746 -3.5 12.4375 C-6.86650098 11.84836233 -8.00108769 10.73925021 -10 8 C-10.49089348 5.12476676 -10.41359492 3.70554428 -8.9375 1.1875 C-5.93702602 -0.65150018 -3.43518387 -0.30671285 0 0 Z " fill="#1A1E22" transform="translate(1037,134)"/>
<path d="M0 0 C0.31424507 3.45669582 0.37956836 5.39901677 -1.5 8.375 C-5.201708 10.7811102 -7.62688032 10.42320513 -12 10 C-12.66 9.34 -13.32 8.68 -14 8 C-13.9375 6.0625 -13.9375 6.0625 -13 4 C-8.86521997 0.89891498 -5.0993905 0 0 0 Z " fill="#F3F5F6" transform="translate(342,177)"/>
<path d="M0 0 C-0.75 6.75 -0.75 6.75 -3 9 C-5.09375 9.265625 -5.09375 9.265625 -7.5 9.25 C-8.2940625 9.25515625 -9.088125 9.2603125 -9.90625 9.265625 C-12 9 -12 9 -14 7 C-13.9375 5.0625 -13.9375 5.0625 -13 3 C-8.80875324 -0.55620937 -5.23231533 -0.26604993 0 0 Z " fill="#F5F6F7" transform="translate(400,178)"/>
<path d="M0 0 C3.97177365 2.47132583 4.84033405 3.36133621 6 8 C0.39 8 -5.22 8 -11 8 C-8.42495399 1.56238497 -7.26244791 -1.01674271 0 0 Z " fill="#F1F2F4" transform="translate(630,165)"/>
<path d="M0 0 C2.875 1.75 2.875 1.75 5 4 C5 5.32 5 6.64 5 8 C-0.28 8 -5.56 8 -11 8 C-8.42495399 1.56238497 -7.26244791 -1.01674271 0 0 Z " fill="#F2F3F5" transform="translate(251,165)"/>
<path d="M0 0 C6.75 -0.125 6.75 -0.125 9 1 C9.125 4.375 9.125 4.375 9 8 C7 10 7 10 3.375 10.125 C2.26125 10.08375 1.1475 10.0425 0 10 C0 6.7 0 3.4 0 0 Z " fill="#A3EB5D" transform="translate(1359,156)"/>
<path d="M0 0 C1.9375 1.25 1.9375 1.25 3 3 C3 4.32 3 5.64 3 7 C-1.62 7 -6.24 7 -11 7 C-10.67 5.35 -10.34 3.7 -10 2 C-6.30513897 -0.46324069 -4.36706908 -0.38991688 0 0 Z " fill="#EBEBEC" transform="translate(1150,158)"/>
<path d="M0 0 C3.0625 0.1875 3.0625 0.1875 5.0625 2.1875 C4.6875 5.3125 4.6875 5.3125 4.0625 8.1875 C1.1875 8.8125 1.1875 8.8125 -1.9375 9.1875 C-3.9375 7.1875 -3.9375 7.1875 -4.125 4.125 C-3.8775 0.2475 -3.8775 0.2475 0 0 Z " fill="#6E7D92" transform="translate(563.9375,145.8125)"/>
<path d="M0 0 C2.5 0.25 2.5 0.25 4.5 2.25 C4.75 4.75 4.75 4.75 4.5 7.25 C3.84 7.91 3.18 8.57 2.5 9.25 C-0.625 8.875 -0.625 8.875 -3.5 8.25 C-4.125 5.375 -4.125 5.375 -4.5 2.25 C-2.5 0.25 -2.5 0.25 0 0 Z " fill="#6B7B91" transform="translate(187.5,145.75)"/>
<path d="M0 0 C9.67907548 -0.68862988 9.67907548 -0.68862988 13.5625 1.875 C16 4 16 4 17 6 C10.81839396 5.46246904 5.673142 3.45417612 0 1 C0 0.67 0 0.34 0 0 Z " fill="#3BB203" transform="translate(860,140)"/>
<path d="M0 0 C0.66 0 1.32 0 2 0 C3.31626692 3.61973402 4 6.09567131 4 10 C2.02 10 0.04 10 -2 10 C-1.34 6.7 -0.68 3.4 0 0 Z " fill="#98DB58" transform="translate(1330,158)"/>
<path d="M0 0 C2.0625 0.4375 2.0625 0.4375 4 1 C3.01 1.66 2.02 2.32 1 3 C0.67 3.99 0.34 4.98 0 6 C-0.99 5.67 -1.98 5.34 -3 5 C-1.125 1.125 -1.125 1.125 0 0 Z " fill="#2B2F33" transform="translate(854,147)"/>
</svg>
