<?xml version="1.0" encoding="UTF-8"?>
<svg version="1.1" xmlns="http://www.w3.org/2000/svg" width="643" height="146">
<path d="M0 0 C16.27915844 12.87816228 26.13166264 31.17209688 28.62890625 51.67578125 C29.7929151 72.82940371 24.42963861 92.71463769 10.25390625 108.86328125 C8.72810738 110.48254794 7.18728617 112.08784585 5.62890625 113.67578125 C5.025625 114.30355469 4.42234375 114.93132812 3.80078125 115.578125 C-9.73319026 128.55308465 -27.88180981 133.34957757 -46.15014648 133.07421875 C-66.34658356 132.35688559 -83.23721226 123.44286986 -97.05859375 108.92578125 C-112.41905006 91.12715727 -115.73456685 70.48158276 -114.37109375 47.67578125 C-112.69693005 33.76468909 -105.62823009 20.03734818 -96.37109375 9.67578125 C-95.76652344 8.99 -95.16195312 8.30421875 -94.5390625 7.59765625 C-69.98051034 -18.6114707 -28.50061496 -20.42331063 0 0 Z " fill="#E43961" transform="translate(114.37109375,13.32421875)"/>
<path d="M0 0 C9.52870328 5.92967558 15.06421738 14.1106209 18.59765625 24.7109375 C19.34669336 35.41848436 18.57409305 44.15010696 13.48828125 53.8203125 C12.17161805 56.61533438 12.21703057 58.66593207 12.59765625 61.7109375 C14.03426936 64.23100594 14.03426936 64.23100594 16.59765625 65.7109375 C20.03503156 66.13307131 22.41856114 66.31950272 25.53515625 64.7109375 C27.24882437 61.48520927 27.15597846 58.27675532 26.59765625 54.7109375 C24.78602358 52.03662261 23.72004548 51.75173391 20.59765625 50.7109375 C20.59765625 50.0509375 20.59765625 49.3909375 20.59765625 48.7109375 C23.73636813 47.14158156 26.13621447 47.35892647 29.59765625 47.7109375 C32.53515625 49.8359375 32.53515625 49.8359375 34.59765625 52.7109375 C34.91015625 56.0234375 34.91015625 56.0234375 34.59765625 58.7109375 C35.52578125 58.7934375 36.45390625 58.8759375 37.41015625 58.9609375 C40.59765625 59.7109375 40.59765625 59.7109375 42.47265625 61.3359375 C44.03847061 64.6415456 43.99150954 67.10061567 43.59765625 70.7109375 C42.09765625 72.6484375 42.09765625 72.6484375 40.59765625 73.7109375 C40.14390625 72.7415625 39.69015625 71.7721875 39.22265625 70.7734375 C37.93979404 67.64014168 37.93979404 67.64014168 35.59765625 66.7109375 C30.30463612 65.93262105 30.30463612 65.93262105 25.64453125 68.09765625 C24.32659482 69.33255197 23.0184392 70.57794518 21.71875 71.83203125 C12.65375619 79.86197973 -0.16969807 82.36250245 -11.91796875 82.0546875 C-24.08812123 80.85404465 -35.56342004 74.59088611 -43.84765625 65.6328125 C-52.87067297 54.47873153 -56.87747605 41.00128163 -55.40234375 26.7109375 C-53.81761367 16.99031641 -48.62242424 9.0886459 -41.08984375 2.8359375 C-28.68189228 -6.00002794 -13.60016306 -7.29764847 0 0 Z " fill="#FEFDFD" transform="translate(85.40234375,34.2890625)"/>
<path d="M0 0 C1.02090729 0.00007553 2.04181458 0.00015106 3.09365845 0.00022888 C4.75151871 0.00797081 4.75151871 0.00797081 6.44287109 0.01586914 C7.57203949 0.01728409 8.70120789 0.01869904 9.86459351 0.02015686 C13.48185848 0.02576796 17.09906223 0.03832237 20.71630859 0.05102539 C23.16422437 0.05603896 25.61214111 0.06060211 28.06005859 0.06469727 C34.07049625 0.07574099 40.08089805 0.09248996 46.09130859 0.11352539 C45.61474447 1.90588606 45.13497361 3.69739436 44.65380859 5.48852539 C44.38697266 6.48625977 44.12013672 7.48399414 43.84521484 8.51196289 C43.09130859 11.11352539 43.09130859 11.11352539 42.09130859 13.11352539 C40.20641724 13.13539917 40.20641724 13.13539917 38.28344727 13.15771484 C33.62592968 13.21564143 28.96889843 13.2928745 24.31176758 13.37597656 C22.29524625 13.40925249 20.27863117 13.43727607 18.26196289 13.45996094 C15.36482759 13.49345795 12.46855342 13.54577084 9.57177734 13.60180664 C8.66856247 13.60819656 7.7653476 13.61458649 6.83476257 13.62117004 C5.57379509 13.65086128 5.57379509 13.65086128 4.28735352 13.68115234 C3.17815804 13.69780693 3.17815804 13.69780693 2.04655457 13.71479797 C-0.47234155 14.22846887 -1.39736961 15.05703003 -2.90869141 17.11352539 C-2.833268 20.23346145 -2.833268 20.23346145 -1.90869141 23.11352539 C1.04083044 24.58828632 3.71590399 24.26050982 7.00537109 24.28930664 C8.4207502 24.31252604 9.8361148 24.3366442 11.25146484 24.36157227 C13.47633271 24.39651144 15.70067399 24.42593037 17.92578125 24.43945312 C33.33252382 24.55134567 33.33252382 24.55134567 40.09130859 29.11352539 C44.46977209 33.60721161 46.18157646 37.71886486 46.46630859 43.92602539 C46.30401877 50.74219796 44.00519499 55.06611203 39.40380859 59.98852539 C32.46830472 64.43771656 24.65597031 64.40722876 16.62255859 64.34399414 C15.66103882 64.34353592 14.69951904 64.3430777 13.7088623 64.34260559 C11.69538118 64.33960532 9.6819019 64.33178657 7.66845703 64.31933594 C4.57234592 64.30091255 1.47653167 64.2988277 -1.61962891 64.29907227 C-3.58056901 64.29416252 -5.54150709 64.28833658 -7.50244141 64.28149414 C-8.43149292 64.28038132 -9.36054443 64.27926849 -10.31774902 64.27812195 C-11.59543152 64.26855217 -11.59543152 64.26855217 -12.89892578 64.25878906 C-13.6512146 64.25497726 -14.40350342 64.25116547 -15.17858887 64.24723816 C-16.90869141 64.11352539 -16.90869141 64.11352539 -17.90869141 63.11352539 C-17.98128087 60.92713086 -17.99242923 58.7385215 -17.97119141 56.55102539 C-17.96216797 55.35348633 -17.95314453 54.15594727 -17.94384766 52.92211914 C-17.93224609 51.9952832 -17.92064453 51.06844727 -17.90869141 50.11352539 C-17.32653366 50.10987976 -16.74437592 50.10623413 -16.14457703 50.10247803 C-10.09361635 50.06071648 -4.0434187 49.99141638 2.00708008 49.90600586 C4.26611709 49.87775369 6.52525373 49.8565604 8.78442383 49.8425293 C12.02916635 49.82115887 15.27270552 49.77453807 18.51708984 49.72290039 C19.52967361 49.72167175 20.54225739 49.72044312 21.58552551 49.71917725 C22.99664864 49.6895993 22.99664864 49.6895993 24.4362793 49.65942383 C25.26456741 49.65054138 26.09285553 49.64165894 26.94624329 49.63250732 C29.25733663 49.27332815 29.25733663 49.27332815 30.92521667 47.24737549 C32.41346177 45.10044962 32.41346177 45.10044962 31.40380859 42.42602539 C30.30373388 39.98760319 30.30373388 39.98760319 28.09130859 39.11352539 C25.76519089 38.99400009 23.43590492 38.93424889 21.10693359 38.90258789 C19.68244321 38.87450535 18.2579642 38.8458408 16.83349609 38.81665039 C14.59098804 38.77550345 12.34868917 38.73861245 10.10595703 38.7121582 C7.93917015 38.68439116 5.77334465 38.63850928 3.60693359 38.59008789 C2.31045898 38.57026855 1.01398437 38.55044922 -0.32177734 38.5300293 C-6.79389728 37.77850217 -10.70634289 34.9402251 -14.64697266 29.99633789 C-17.99578008 24.99904632 -18.29597987 20.01927717 -17.44384766 14.25024414 C-15.93179549 8.21307236 -11.63896906 4.71264969 -6.90869141 1.11352539 C-4.42514099 -0.12824982 -2.77761519 -0.00684142 0 0 Z " fill="#0B2E3E" transform="translate(596.90869140625,42.886474609375)"/>
<path d="M0 0 C7.13496883 -0.0990915 14.26953449 -0.17157558 21.4050293 -0.21972656 C23.83088156 -0.23980571 26.25668563 -0.26707475 28.68237305 -0.30175781 C32.17508862 -0.35043678 35.66716259 -0.3730065 39.16015625 -0.390625 C40.23959 -0.41127014 41.31902374 -0.43191528 42.4311676 -0.45318604 C49.74589707 -0.45535153 54.22613902 0.53921717 59.7421875 5.59765625 C64.52742389 11.78546193 64.8340143 17.35810154 64 25 C61.96596653 30.81695552 58.17534943 34.04608301 52.96484375 37.08984375 C50.98690744 38.00606474 49.11537821 38.5006618 47 39 C47.33322266 39.68626465 47.66644531 40.3725293 48.00976562 41.07958984 C49.51054322 44.17612431 51.00533994 47.27550837 52.5 50.375 C53.02464844 51.45523438 53.54929687 52.53546875 54.08984375 53.6484375 C54.58613281 54.6796875 55.08242188 55.7109375 55.59375 56.7734375 C56.05458984 57.72653809 56.51542969 58.67963867 56.99023438 59.66162109 C58 62 58 62 58 64 C53.05 64 48.1 64 43 64 C40.9951721 60.04404494 38.99594939 56.08543111 37 52.125 C36.42765625 50.99707031 35.8553125 49.86914062 35.265625 48.70703125 C34.72421875 47.63066406 34.1828125 46.55429688 33.625 45.4453125 C33.12226563 44.45031738 32.61953125 43.45532227 32.1015625 42.43017578 C31 40 31 40 31 38 C29.08302063 38.14166357 27.16642277 38.28849584 25.25 38.4375 C24.18265625 38.51871094 23.1153125 38.59992188 22.015625 38.68359375 C18.8068415 38.94913876 18.8068415 38.94913876 15 40 C14.67 47.92 14.34 55.84 14 64 C3.94140625 64.09765625 3.94140625 64.09765625 1 64 C-1.25645084 61.74354916 -0.18535463 56.46461781 -0.1875 53.4375 C-0.19974609 52.55513672 -0.21199219 51.67277344 -0.22460938 50.76367188 C-0.24102583 43.3598526 0.04822342 36.34450227 5.3125 30.625 C5.88613281 29.97789063 6.45976562 29.33078125 7.05078125 28.6640625 C11.41483213 24.93843991 15.76169095 24.74482538 21.34765625 24.69140625 C22.77148873 24.66626101 24.19531676 24.64086278 25.61914062 24.61523438 C27.84642521 24.58644919 30.07363304 24.56240651 32.30102539 24.54370117 C34.46278683 24.52203356 36.62369191 24.48261605 38.78515625 24.44140625 C40.07301025 24.42795166 41.36086426 24.41449707 42.68774414 24.40063477 C46.13219686 23.9840101 47.52220777 23.35517178 50 21 C49.42547254 17.06924356 49.42547254 17.06924356 47 14 C44.90019956 13.66983494 44.90019956 13.66983494 42.45849609 13.68115234 C41.51767181 13.66128265 40.57684753 13.64141296 39.60751343 13.62094116 C38.58976837 13.60938995 37.57202332 13.59783875 36.5234375 13.5859375 C35.48305328 13.56657135 34.44266907 13.5472052 33.37075806 13.5272522 C30.0389228 13.46734273 26.70705321 13.42102548 23.375 13.375 C21.11977637 13.3368307 18.86456748 13.2977796 16.609375 13.2578125 C11.073036 13.16163181 5.53662876 13.07764284 0 13 C0 8.71 0 4.42 0 0 Z " fill="#0B2E3E" transform="translate(443,43)"/>
<path d="M0 0 C4.62 0 9.24 0 14 0 C14 8.25 14 16.5 14 25 C26.87 25 39.74 25 53 25 C53 16.75 53 8.5 53 0 C57.62 0 62.24 0 67 0 C67.02255425 8.1969097 67.04091696 16.39379545 67.05181217 24.59072781 C67.0570402 28.39651577 67.06413638 32.20228148 67.07543945 36.00805664 C67.0862712 39.67792544 67.09227744 43.34777278 67.09487724 47.01765633 C67.09673097 48.42074992 67.1003506 49.82384229 67.10573006 51.2269268 C67.11294419 53.1856968 67.11340809 55.1444882 67.11352539 57.10327148 C67.115746 58.22023911 67.11796661 59.33720673 67.12025452 60.48802185 C67 63 67 63 66 64 C61.71 64 57.42 64 53 64 C52.67 53.11 52.34 42.22 52 31 C51.01 33.31 50.02 35.62 49 38 C37.45 38 25.9 38 14 38 C14.0395914 46.18252797 14.0395914 46.18252797 14.09008789 54.36499023 C14.09258545 55.37762939 14.09508301 56.39026855 14.09765625 57.43359375 C14.10289307 58.47572021 14.10812988 59.51784668 14.11352539 60.59155273 C14 63 14 63 13 64 C8.71 64 4.42 64 0 64 C0 42.88 0 21.76 0 0 Z " fill="#0A2E3E" transform="translate(308,43)"/>
<path d="M0 0 C6.27 0 12.54 0 19 0 C21.87352694 7.89976744 24.74299794 15.80097177 27.60533142 23.70480061 C28.93454585 27.37468466 30.26553634 31.04390417 31.60058594 34.71166992 C32.88857875 38.25036 34.17190561 41.79070977 35.45199585 45.33226585 C35.94153563 46.68407717 36.43276218 48.03527885 36.9256897 49.38585854 C37.6150598 51.275562 38.29791758 53.16763735 38.98046875 55.05981445 C39.37129639 56.13681107 39.76212402 57.21380768 40.16479492 58.32344055 C41 61 41 61 41 64 C36.38 64 31.76 64 27 64 C19 45.18918919 19 45.18918919 19 40 C18.34 40 17.68 40 17 40 C16.80083984 40.93972656 16.80083984 40.93972656 16.59765625 41.8984375 C16.42105469 42.71570313 16.24445313 43.53296875 16.0625 44.375 C15.88847656 45.18710938 15.71445312 45.99921875 15.53515625 46.8359375 C15 49 15 49 14 51 C8.06 51.33 2.12 51.66 -4 52 C-5.65 55.96 -7.3 59.92 -9 64 C-13.29 64 -17.58 64 -22 64 C-23 62 -23 62 -22.38116455 59.67388916 C-22.0326947 58.70159363 -21.68422485 57.7292981 -21.32519531 56.72753906 C-20.93438782 55.62589417 -20.54358032 54.52424927 -20.14093018 53.38922119 C-19.70770447 52.19343445 -19.27447876 50.99764771 -18.828125 49.765625 C-18.17079376 47.92674713 -18.17079376 47.92674713 -17.50018311 46.05072021 C-16.56991985 43.4497431 -15.63456753 40.85067294 -14.6953125 38.25292969 C-13.49617641 34.93592044 -12.30694881 31.61547157 -11.12123489 28.29364395 C-9.98611021 25.1161084 -8.8445228 21.94091287 -7.703125 18.765625 C-7.27799622 17.57793518 -6.85286743 16.39024536 -6.41485596 15.16656494 C-6.01143982 14.0523114 -5.60802368 12.93805786 -5.19238281 11.79003906 C-4.84073059 10.81456116 -4.48907837 9.83908325 -4.12677002 8.83404541 C-2.92599292 5.81385781 -1.45350602 2.90701205 0 0 Z M9 15 C5.85228529 22.24098798 3.12539606 29.39331935 1 37 C6.28 37 11.56 37 17 37 C14.8262084 29.60910856 12.46996624 22.29705763 10 15 C9.67 15 9.34 15 9 15 Z " fill="#0C2F3F" transform="translate(400,43)"/>
<path d="M0 0 C1.000811 0.00007553 2.00162201 0.00015106 3.03276062 0.00022888 C4.11096573 0.00539017 5.18917084 0.01055145 6.30004883 0.01586914 C7.40560623 0.01728409 8.51116364 0.01869904 9.65022278 0.02015686 C13.18586925 0.02576025 16.7214527 0.03831335 20.25708008 0.05102539 C22.65226146 0.05603995 25.04744383 0.06060294 27.44262695 0.06469727 C33.31829955 0.07573078 39.19393531 0.09247223 45.06958008 0.11352539 C44.23733153 4.7272528 42.76897322 8.75421254 41.06958008 13.11352539 C39.18468872 13.13539917 39.18468872 13.13539917 37.26171875 13.15771484 C32.60420116 13.21564143 27.94716992 13.2928745 23.29003906 13.37597656 C21.27351773 13.40925249 19.25690266 13.43727607 17.24023438 13.45996094 C14.34309908 13.49345795 11.4468249 13.54577084 8.55004883 13.60180664 C7.64683395 13.60819656 6.74361908 13.61458649 5.81303406 13.62117004 C4.55206657 13.65086128 4.55206657 13.65086128 3.265625 13.68115234 C2.15642952 13.69780693 2.15642952 13.69780693 1.02482605 13.71479797 C-1.48976057 14.22759004 -2.38950096 15.08950309 -3.93041992 17.11352539 C-4.39480786 20.16281554 -4.39480786 20.16281554 -4.32885742 23.64477539 C-4.33272461 24.9299707 -4.3365918 26.21516602 -4.34057617 27.53930664 C-4.33429199 28.20784668 -4.32800781 28.87638672 -4.3215332 29.56518555 C-4.30547347 31.60671869 -4.32138663 33.64627247 -4.34057617 35.68774414 C-4.33670898 36.97293945 -4.3328418 38.25813477 -4.32885742 39.58227539 C-4.32547363 40.76241211 -4.32208984 41.94254883 -4.31860352 43.15844727 C-4.1828976 46.05763843 -4.1828976 46.05763843 -2.69136047 47.77119446 C-0.44928771 49.48028317 0.83060449 49.50751203 3.6328125 49.54589844 C4.5535405 49.5656926 5.47426849 49.58548676 6.42289734 49.60588074 C7.41360733 49.61227066 8.40431732 49.61866058 9.42504883 49.62524414 C10.44182205 49.64319534 11.45859528 49.66114655 12.50617981 49.67964172 C15.7564376 49.73386079 19.00654758 49.76767798 22.25708008 49.80102539 C24.45957466 49.83418818 26.6620497 49.86867686 28.86450195 49.90454102 C34.26606212 49.98959372 39.66764114 50.05789437 45.06958008 50.11352539 C44.53473607 55.46196547 42.60267241 59.47148642 40.06958008 64.11352539 C34.51946292 64.16321652 28.96947725 64.19938224 23.41918945 64.22338867 C21.53374982 64.23340386 19.64832554 64.24701991 17.76293945 64.2644043 C15.04219759 64.28885071 12.32166231 64.30005355 9.60083008 64.30883789 C8.35033875 64.32432175 8.35033875 64.32432175 7.07458496 64.34011841 C-0.75913519 64.34159721 -7.73271437 63.32523233 -13.93041992 58.11352539 C-19.89839389 50.10538141 -19.14259592 41.40462873 -19.18041992 31.86352539 C-19.20104492 30.57833008 -19.22166992 29.29313477 -19.24291992 27.96899414 C-19.30739561 12.25304398 -19.30739561 12.25304398 -13.99291992 5.73852539 C-12.97198242 4.93415039 -12.97198242 4.93415039 -11.93041992 4.11352539 C-11.24979492 3.55665039 -10.56916992 2.99977539 -9.86791992 2.42602539 C-6.58187682 0.19999619 -3.85578244 -0.0097123 0 0 Z " fill="#0B2F3E" transform="translate(259.930419921875,42.886474609375)"/>
<path d="M0 0 C21.12 0 42.24 0 64 0 C60 12 60 12 59 13 C57.55710213 13.09295815 56.10970215 13.11746513 54.66381836 13.11352539 C53.28249977 13.11341209 53.28249977 13.11341209 51.87327576 13.11329651 C50.87224319 13.10813522 49.87121063 13.10297394 48.83984375 13.09765625 C47.82024063 13.0962413 46.80063751 13.09482635 45.75013733 13.09336853 C42.47922893 13.08775097 39.20838787 13.0751955 35.9375 13.0625 C33.72591244 13.05748726 31.51432382 13.05292396 29.30273438 13.04882812 C23.86846643 13.03777584 18.43423803 13.02102063 13 13 C13.30798326 14.48011371 13.621518 15.95907325 13.9375 17.4375 C14.11152344 18.26121094 14.28554687 19.08492187 14.46484375 19.93359375 C14.80752994 21.97661204 14.80752994 21.97661204 16 23 C17.50316769 23.1224331 19.01188167 23.17776285 20.51977539 23.20532227 C21.48069595 23.22526749 22.44161652 23.24521271 23.43165588 23.26576233 C24.476436 23.28247482 25.52121613 23.29918732 26.59765625 23.31640625 C27.66165146 23.33718735 28.72564667 23.35796844 29.82188416 23.37937927 C33.2353544 23.44499254 36.64890429 23.50381423 40.0625 23.5625 C42.37045109 23.60567403 44.678394 23.64928794 46.98632812 23.69335938 C52.65746682 23.80068584 58.32868552 23.90242992 64 24 C63.54636829 25.58468677 63.08688548 27.16769924 62.625 28.75 C62.24214844 30.07257813 62.24214844 30.07257813 61.8515625 31.421875 C61.0790066 33.76080572 60.16374324 35.83442562 59 38 C53.46819339 38.0497499 47.93651948 38.08588418 42.40454102 38.10986328 C40.52593718 38.11986873 38.64734871 38.13347733 36.76879883 38.15087891 C34.05546252 38.1753688 31.34233362 38.1865379 28.62890625 38.1953125 C27.80040665 38.20563507 26.97190704 38.21595764 26.11830139 38.22659302 C18.8300816 38.22796898 11.11433909 37.89307054 5.5625 32.6875 C4.92441406 32.11386719 4.28632813 31.54023437 3.62890625 30.94921875 C-3.60578091 22.29188328 0 10.72685367 0 0 Z " fill="#0C2F3F" transform="translate(172,69)"/>
<path d="M0 0 C21.12 0 42.24 0 64 0 C61 10 61 10 60 13 C53.07 13 46.14 13 39 13 C39.00523682 14.50941162 39.01047363 16.01882324 39.01586914 17.57397461 C39.03391205 23.1517681 39.0454294 28.729559 39.05493164 34.30737305 C39.05997349 36.72567172 39.06680678 39.14396733 39.07543945 41.56225586 C39.08751157 45.02979283 39.09322963 48.49728966 39.09765625 51.96484375 C39.10281754 53.05337143 39.10797882 54.14189911 39.11329651 55.26341248 C39.11337204 56.26437454 39.11344757 57.26533661 39.11352539 58.29663086 C39.115746 59.18265488 39.11796661 60.06867889 39.12025452 60.98155212 C39 63 39 63 38 64 C36.00200428 64.09873816 34.00042842 64.12971799 32 64.125 C30.906875 64.12757812 29.81375 64.13015625 28.6875 64.1328125 C26 64 26 64 25 63 C24.90673284 61.43452952 24.88254418 59.86487228 24.88647461 58.29663086 C24.88655014 57.29566879 24.88662567 56.29470673 24.88670349 55.26341248 C24.89186478 54.1748848 24.89702606 53.08635712 24.90234375 51.96484375 C24.9037587 50.85645645 24.90517365 49.74806915 24.90663147 48.60609436 C24.91224967 45.04986931 24.92480525 41.49370617 24.9375 37.9375 C24.94251266 35.53320403 24.94707597 33.12890708 24.95117188 30.72460938 C24.9613761 24.81636294 24.98094795 18.90825115 25 13 C16.75 13 8.5 13 0 13 C0 8.71 0 4.42 0 0 Z " fill="#0A2D3D" transform="translate(513,43)"/>
<path d="M0 0 C21.12 0 42.24 0 64 0 C60 13 60 13 59 14 C57.15881971 14.09381302 55.31402359 14.11743954 53.47045898 14.11352539 C52.28931015 14.11344986 51.10816132 14.11337433 49.89122009 14.11329651 C48.6058284 14.10813522 47.32043671 14.10297394 45.99609375 14.09765625 C44.68794205 14.0962413 43.37979034 14.09482635 42.03199768 14.09336853 C38.54837141 14.0895441 35.06478661 14.07971446 31.58117676 14.06866455 C28.02873292 14.05844882 24.47628241 14.05387056 20.92382812 14.04882812 C13.94919996 14.03809212 6.97460624 14.02049593 0 14 C0 9.38 0 4.76 0 0 Z " fill="#092D3D" transform="translate(172,43)"/>
</svg>
