<?xml version="1.0" encoding="UTF-8"?>
<svg version="1.1" xmlns="http://www.w3.org/2000/svg" width="1080" height="1080">
<path d="M0 0 C356.4 0 712.8 0 1080 0 C1080 356.4 1080 712.8 1080 1080 C723.6 1080 367.2 1080 0 1080 C0 723.6 0 367.2 0 0 Z " fill="#FEEA0E" transform="translate(0,0)"/>
<path d="M0 0 C55.11 0 110.22 0 167 0 C160.28467153 13.43065693 160.28467153 13.43065693 157 19.0625 C151.74789133 28.08956178 146.83372299 37.29759579 141.90039062 46.50170898 C136.92403945 55.78172801 131.91790128 65.02992748 126.64453125 74.14453125 C124.62477033 77.65152705 122.68881174 81.19929011 120.76171875 84.7578125 C117.90739145 90.01078734 115.01775263 95.24434479 112.13354492 100.48095703 C107.0063232 109.79493157 101.92306796 119.13090497 96.90039062 128.50170898 C91.92403945 137.78172801 86.91790128 147.02992748 81.64453125 156.14453125 C79.62477033 159.65152705 77.68881174 163.19929011 75.76171875 166.7578125 C73.35814058 171.18124904 70.9280805 175.58997807 68.5 180 C67.07564336 182.58924388 65.65155051 185.17863266 64.22753906 187.76806641 C63.24319719 189.55781449 62.25839315 191.34730838 61.2734375 193.13671875 C58.77052729 197.7020829 56.31602317 202.29048508 53.89038086 206.8972168 C49.52274645 215.19020535 45.03291809 223.40610971 40.45703125 231.5859375 C38.64223011 234.83275337 36.85735964 238.09472115 35.08203125 241.36328125 C32.07687881 246.88331958 28.983206 252.35002794 25.875 257.8125 C19.93050769 268.29296756 14.13088298 278.84744503 8.38891602 289.43994141 C4.09784997 297.3492609 -0.22460163 305.24128741 -4.5625 313.125 C-5.01818359 313.95386719 -5.47386719 314.78273438 -5.94335938 315.63671875 C-6.84698064 317.2794328 -7.75141844 318.921698 -8.65673828 320.56347656 C-9.57893303 322.23623258 -10.49907203 323.91012309 -11.41748047 325.58496094 C-11.86623535 326.3999707 -12.31499023 327.21498047 -12.77734375 328.0546875 C-13.18073975 328.78929199 -13.58413574 329.52389648 -13.99975586 330.28076172 C-15 332 -15 332 -16 333 C-18.13893267 333.09692063 -20.28112967 333.12186803 -22.42225647 333.12025452 C-23.44034264 333.12153615 -23.44034264 333.12153615 -24.47899622 333.12284368 C-26.76995926 333.12450041 -29.06085026 333.118974 -31.35180664 333.11352539 C-32.98740131 333.11324353 -34.6229961 333.11340122 -36.2585907 333.1139679 C-40.71294586 333.11425593 -45.16727434 333.10835824 -49.62162328 333.10139394 C-54.27146474 333.09516139 -58.92130674 333.09455668 -63.57115173 333.09336853 C-72.38261702 333.09025492 -81.19406997 333.08204113 -90.00552982 333.07201904 C-100.03438108 333.06085882 -110.06323291 333.05534768 -120.09208882 333.05032361 C-140.72806611 333.03985854 -161.36403228 333.02225853 -182 333 C-180.69228045 329.67697099 -179.29642828 326.56062899 -177.5625 323.4375 C-177.03785156 322.48746094 -176.51320313 321.53742188 -175.97265625 320.55859375 C-175.66859863 320.01058105 -175.36454102 319.46256836 -175.05126953 318.89794922 C-172.85756351 314.93745906 -170.68098968 310.96750216 -168.5 307 C-167.5338918 305.24346889 -166.56774685 303.48695798 -165.6015625 301.73046875 C-165.14813477 300.90595215 -164.69470703 300.08143555 -164.22753906 299.23193359 C-163.24319719 297.44218551 -162.25839315 295.65269162 -161.2734375 293.86328125 C-158.77052729 289.2979171 -156.31602317 284.70951492 -153.89038086 280.1027832 C-149.52274645 271.80979465 -145.03291809 263.59389029 -140.45703125 255.4140625 C-138.64223011 252.16724663 -136.85735964 248.90527885 -135.08203125 245.63671875 C-132.07687881 240.11668042 -128.983206 234.64997206 -125.875 229.1875 C-119.93059692 218.70718975 -114.13110746 208.15284751 -108.38916016 197.56054688 C-103.6736272 188.86871741 -98.91528649 180.20066424 -94.14453125 171.5390625 C-89.01373682 162.21836431 -83.92666491 152.87580585 -78.90039062 143.49829102 C-73.92403945 134.21827199 -68.91790128 124.97007252 -63.64453125 115.85546875 C-61.62477033 112.34847295 -59.68881174 108.80070989 -57.76171875 105.2421875 C-55.35814058 100.81875096 -52.9280805 96.41002193 -50.5 92 C-49.07564336 89.41075612 -47.65155051 86.82136734 -46.22753906 84.23193359 C-45.24319719 82.44218551 -44.25839315 80.65269162 -43.2734375 78.86328125 C-40.77052729 74.2979171 -38.31602317 69.70951492 -35.89038086 65.1027832 C-31.52274645 56.80979465 -27.03291809 48.59389029 -22.45703125 40.4140625 C-20.65677735 37.19315509 -18.8859312 33.95741008 -17.125 30.71484375 C-13.87853223 24.7513306 -10.53928307 18.84229458 -7.1875 12.9375 C-6.03471757 10.90519669 -4.88235176 8.87265698 -3.73046875 6.83984375 C-3.22926514 5.95675537 -2.72806152 5.07366699 -2.21166992 4.16381836 C-1.443822 2.79258399 -0.70283343 1.40566685 0 0 Z " fill="#0F1114" transform="translate(458,373)"/>
<path d="M0 0 C0.92761139 -0.00014603 1.85522278 -0.00029205 2.8109436 -0.0004425 C5.85714103 0.00025054 8.90327623 0.00801434 11.94946289 0.01586914 C14.06938137 0.01773548 16.18930029 0.01915837 18.30921936 0.02015686 C23.87404584 0.02396501 29.43884599 0.03378072 35.00366211 0.04486084 C40.68806604 0.0551116 46.37247425 0.05966232 52.05688477 0.06469727 C63.19947442 0.07540456 74.34204459 0.09246048 85.48461914 0.11352539 C84.756187 4.17223273 83.58823306 7.08856383 81.53540039 10.68383789 C80.93405273 11.74602539 80.33270508 12.80821289 79.71313477 13.90258789 C79.08084961 15.00344727 78.44856445 16.10430664 77.79711914 17.23852539 C76.56346837 19.40746765 75.33039101 21.57673617 74.09790039 23.74633789 C73.48785156 24.81762939 72.87780273 25.8889209 72.24926758 26.99267578 C67.83571047 34.79822373 63.62087813 42.71237907 59.38500977 50.61523438 C54.40865859 59.8952534 49.40252042 69.14345287 44.12915039 78.25805664 C42.10938947 81.76505244 40.17343088 85.3128155 38.24633789 88.87133789 C35.3920106 94.12431274 32.50237177 99.35787019 29.61816406 104.59448242 C24.49094234 113.90845696 19.4076871 123.24443036 14.38500977 132.61523438 C9.40865859 141.8952534 4.40252042 151.14345287 -0.87084961 160.25805664 C-2.89061053 163.76505244 -4.82656912 167.3128155 -6.75366211 170.87133789 C-9.15724028 175.29477443 -11.58730036 179.70350346 -14.01538086 184.11352539 C-15.4397375 186.70276927 -16.86383035 189.29215805 -18.2878418 191.8815918 C-19.27218367 193.67133988 -20.25698771 195.46083377 -21.24194336 197.25024414 C-23.74485357 201.81560829 -26.19935769 206.40401047 -28.625 211.01074219 C-32.99263441 219.30373074 -37.48246277 227.5196351 -42.05834961 235.69946289 C-43.87315075 238.94627876 -45.65802122 242.20824654 -47.43334961 245.47680664 C-50.43850205 250.99684497 -53.53217486 256.46355333 -56.64038086 261.92602539 C-62.58501972 272.40675132 -68.38454936 282.96160497 -74.12695312 293.55419922 C-78.92352182 302.39584326 -83.765294 311.21210644 -88.63452148 320.01391602 C-89.09407227 320.84729492 -89.55362305 321.68067383 -90.02709961 322.53930664 C-90.43404053 323.27576416 -90.84098145 324.01222168 -91.26025391 324.77099609 C-92.73456046 327.52259527 -94.11932371 330.32141109 -95.51538086 333.11352539 C-150.62538086 333.11352539 -205.73538086 333.11352539 -262.51538086 333.11352539 C-260.68851458 328.8508374 -259.06739479 325.11379601 -256.80053711 321.17211914 C-256.28499268 320.26945312 -255.76944824 319.36678711 -255.23828125 318.43676758 C-254.69034912 317.48447266 -254.14241699 316.53217773 -253.57788086 315.55102539 C-247.55559064 304.99479517 -241.69625038 294.35817012 -235.90454102 283.67407227 C-231.18900806 274.9822428 -226.43066735 266.31418963 -221.65991211 257.65258789 C-216.52911768 248.3318897 -211.44204577 238.98933124 -206.41577148 229.61181641 C-201.43942031 220.33179738 -196.43328214 211.08359791 -191.15991211 201.96899414 C-189.14015119 198.46199834 -187.2041926 194.91423528 -185.27709961 191.35571289 C-182.42277231 186.10273805 -179.53313349 180.8691806 -176.64892578 175.63256836 C-171.52170406 166.31859382 -166.43844882 156.98262042 -161.41577148 147.61181641 C-156.43942031 138.33179738 -151.43328214 129.08359791 -146.15991211 119.96899414 C-144.14015119 116.46199834 -142.2041926 112.91423528 -140.27709961 109.35571289 C-137.39037264 104.04311116 -134.46829515 98.74992818 -131.55004883 93.45458984 C-129.11902573 89.04062598 -126.70840173 84.61749036 -124.32788086 80.17602539 C-112.25419223 58.13291957 -96.52922298 39.95547426 -75.51538086 26.11352539 C-74.7598291 25.61578613 -74.00427734 25.11804688 -73.22583008 24.60522461 C-51.44687704 10.47701986 -26.31552726 -0.10961157 0 0 Z " fill="#0F1114" transform="translate(340.515380859375,372.886474609375)"/>
<path d="M0 0 C1.54613362 0.03538632 3.09224546 0.07173435 4.63833618 0.10894775 C6.27466661 0.11177002 7.91100969 0.11018216 9.54733276 0.10452271 C13.98183391 0.10165611 18.41362405 0.16039323 22.84749556 0.23026228 C27.48382238 0.29282588 32.12021316 0.29865333 36.75689697 0.31051636 C45.53337265 0.34158371 54.30860096 0.42362357 63.08452761 0.52401125 C73.07704489 0.63583127 83.06962214 0.69077879 93.06260943 0.7409656 C113.61540307 0.84545934 134.16707422 1.02132189 154.71890259 1.24420166 C153.42751701 5.22946445 152.02610531 8.78606302 149.97671509 12.44342041 C149.44465454 13.39781006 148.91259399 14.35219971 148.3644104 15.33551025 C147.82139282 16.29537842 147.27837524 17.25524658 146.71890259 18.24420166 C146.21971313 19.13059326 145.72052368 20.01698486 145.20620728 20.93023682 C143.67392186 23.64201169 142.13431061 26.34953368 140.59390259 29.05670166 C134.6494995 39.53701191 128.85001005 50.09135415 123.10806274 60.68365479 C118.39252979 69.37548425 113.63418908 78.04353742 108.86343384 86.70513916 C103.73263941 96.02583735 98.6455675 105.36839581 93.61929321 114.74591064 C88.64294203 124.02592967 83.63680387 133.27412914 78.36343384 142.38873291 C76.34367292 145.89572871 74.40771432 149.44349177 72.48062134 153.00201416 C70.07704317 157.4254507 67.64698308 161.83417973 65.21890259 166.24420166 C63.79454595 168.83344554 62.37045309 171.42283432 60.94644165 174.01226807 C59.96209978 175.80201615 58.97729574 177.59151004 57.99234009 179.38092041 C55.48942988 183.94628456 53.03492576 188.53468674 50.60928345 193.14141846 C46.24164904 201.43440701 41.75182068 209.65031137 37.17593384 217.83013916 C35.3691339 221.06273831 33.59187364 224.31026805 31.82437134 227.56451416 C28.15617471 234.30249522 24.36402502 240.96858237 20.57437134 247.63873291 C17.85710922 252.43123102 15.17885721 257.23701746 12.57437134 262.09185791 C-5.68676525 295.66144484 -42.33316892 319.4955045 -78.28109741 330.24420166 C-92.26310893 334.14468651 -105.69139817 334.78689382 -120.13656616 334.63482666 C-122.26174887 334.62734296 -124.38693859 334.62166014 -126.51213074 334.61767578 C-132.03751533 334.60258682 -137.56246233 334.5634545 -143.087677 334.51885986 C-148.75300176 334.47754072 -154.41839897 334.45958744 -160.08383179 334.43951416 C-171.1497766 334.39693981 -182.21540027 334.32889804 -193.28109741 334.24420166 C-191.8080835 329.62469774 -189.99431482 325.74321652 -187.53109741 321.55670166 C-186.80240544 320.30588122 -186.0745472 319.05457472 -185.34750366 317.80279541 C-184.99188354 317.19290771 -184.63626343 316.58302002 -184.26986694 315.95465088 C-182.4650331 312.83251115 -180.75996984 309.65724279 -179.04281616 306.48638916 C-176.63923799 302.06295262 -174.20917791 297.65422359 -171.78109741 293.24420166 C-170.35674077 290.65495778 -168.93264792 288.065569 -167.50863647 285.47613525 C-166.52429461 283.68638717 -165.53949056 281.89689328 -164.55453491 280.10748291 C-162.05162471 275.54211876 -159.59712058 270.95371658 -157.17147827 266.34698486 C-152.80384387 258.05399631 -148.3140155 249.83809195 -143.73812866 241.65826416 C-141.92332752 238.41144829 -140.13845705 235.14948051 -138.36312866 231.88092041 C-135.35797622 226.36088208 -132.26430341 220.89417372 -129.15609741 215.43170166 C-123.21169433 204.95139141 -117.41220487 194.39704917 -111.67025757 183.80474854 C-106.95472461 175.11291907 -102.19638391 166.4448659 -97.42562866 157.78326416 C-92.29483423 148.46256597 -87.20776232 139.12000751 -82.18148804 129.74249268 C-77.20513686 120.46247365 -72.19899869 111.21427418 -66.92562866 102.09967041 C-64.90586774 98.59267461 -62.96990915 95.04491155 -61.04281616 91.48638916 C-58.63923799 87.06295262 -56.20917791 82.65422359 -53.78109741 78.24420166 C-52.35674077 75.65495778 -50.93264792 73.065569 -49.50863647 70.47613525 C-48.52429461 68.68638717 -47.53949056 66.89689328 -46.55453491 65.10748291 C-44.05162471 60.54211876 -41.59712058 55.95371658 -39.17147827 51.34698486 C-34.74841413 42.94874983 -30.19654759 34.63140983 -25.56625366 26.34576416 C-23.69342757 22.99325956 -21.85429128 19.62401275 -20.03109741 16.24420166 C-19.59138926 15.47010641 -19.1516811 14.69601116 -18.69864845 13.89845848 C-17.24035195 11.29624785 -17.24035195 11.29624785 -16.25971031 8.60833168 C-12.73183714 0.65306435 -8.21111133 -0.01774542 0 0 Z " fill="#0F1114" transform="translate(666.2810974121094,372.75579833984375)"/>
<path d="M0 0 C15.41927841 12.76078213 27.38340963 32.10363493 29.71875 52.25 C31.67027123 77.97261798 26.73072159 99.15733483 9.71875 119.25 C-3.44562387 134.20039411 -22.45323118 145.73468077 -42.62963867 147.55151367 C-46.12371973 147.68640969 -49.59724588 147.71816268 -53.09375 147.6875 C-54.32770508 147.67847656 -55.56166016 147.66945313 -56.83300781 147.66015625 C-76.21890051 147.29197258 -93.9510023 140.49247312 -108.28125 127.25 C-109.20679688 126.404375 -110.13234375 125.55875 -111.0859375 124.6875 C-126.0497305 110.41309584 -135.84536874 91.44855897 -136.51953125 70.625 C-136.72966426 58.48007283 -136.53178778 47.75310553 -132.28125 36.25 C-131.94222656 35.23421875 -131.60320313 34.2184375 -131.25390625 33.171875 C-123.42342836 11.8818924 -105.56318732 -3.55203366 -85.4609375 -12.94921875 C-56.41071311 -25.82694616 -24.4142943 -19.01745029 0 0 Z " fill="#0F1114" transform="translate(972.28125,391.75)"/>
</svg>
