<?xml version="1.0" encoding="UTF-8"?>
<svg version="1.1" xmlns="http://www.w3.org/2000/svg" width="1048" height="339">
<path d="M0 0 C0.6848497 -0.0065712 1.3696994 -0.0131424 2.07530212 -0.01991272 C4.35814524 -0.03972627 6.64092162 -0.05133931 8.92382812 -0.0612793 C10.09869026 -0.06739259 10.09869026 -0.06739259 11.29728699 -0.07362938 C15.46007017 -0.09454555 19.62282007 -0.10881101 23.78564453 -0.11816406 C28.0428732 -0.12911119 32.29956197 -0.16335543 36.55660248 -0.20333576 C39.86168219 -0.22980459 43.16664071 -0.23788333 46.47181702 -0.24144554 C48.03755755 -0.24625103 49.60329498 -0.25768708 51.16893005 -0.27648354 C69.59023447 -0.48350561 87.43622922 2.60002665 101.32226562 15.73950195 C109.62602783 25.2295159 113.11404977 36.00894497 115.45507812 48.17700195 C115.64714844 49.07676758 115.83921875 49.9765332 116.03710938 50.90356445 C118.77718708 72.3632384 116.94530307 96.07341989 104.11132812 114.14575195 C99.0817378 120.31411745 93.13594554 124.85252892 85.45507812 127.17700195 C84.13507813 127.17700195 82.81507813 127.17700195 81.45507812 127.17700195 C86.64155998 146.19729677 92.3071155 165.05185116 98.08764648 183.89758301 C100.10582233 190.47785077 102.11988954 197.05937237 104.13085938 203.6418457 C104.34950779 204.35714825 104.5681562 205.07245079 104.79343033 205.80942917 C108.73592541 218.71638301 112.56838338 231.65450657 116.3553009 244.6078949 C116.55680819 245.29687048 116.75831547 245.98584606 116.96592903 246.69569969 C117.50910829 248.55415896 118.0511866 250.4129399 118.59318542 252.27174377 C119.18020066 254.25044808 119.80240228 256.21897441 120.45507812 258.17700195 C119.45507812 259.17700195 119.45507812 259.17700195 117.13842773 259.29052734 C116.1381958 259.28529053 115.13796387 259.28005371 114.10742188 259.2746582 C113.02783203 259.27143555 111.94824219 259.26821289 110.8359375 259.26489258 C109.13147461 259.25232422 109.13147461 259.25232422 107.39257812 259.23950195 C106.25240234 259.23499023 105.11222656 259.23047852 103.9375 259.22583008 C101.10997461 259.21399943 98.28255173 259.19751605 95.45507812 259.17700195 C91.97775333 248.98263218 88.76038471 238.73265204 85.69250488 228.40853882 C84.39419736 224.03956529 83.08802686 219.6729391 81.78320312 215.3059082 C81.51215759 214.39794998 81.24111206 213.48999176 80.96185303 212.55451965 C78.1775851 203.23333055 75.35864159 193.92271863 72.53768921 184.61257935 C67.449331 167.81818106 62.41718096 151.00923312 57.45507812 134.17700195 C44.25507812 133.84700195 31.05507812 133.51700195 17.45507812 133.17700195 C17.95007813 134.16700195 17.95007813 134.16700195 18.45507812 135.17700195 C18.54986381 136.77940905 18.58137912 138.38574365 18.58206177 139.99095154 C18.58488159 141.00747803 18.58770142 142.02400452 18.59060669 143.07133484 C18.58858246 144.19087051 18.58655823 145.31040619 18.58447266 146.46386719 C18.58622498 147.6395224 18.58797729 148.81517761 18.58978271 150.02645874 C18.5934371 153.25579139 18.59257006 156.48508325 18.58940363 159.71441531 C18.58687604 163.09094756 18.58921874 166.46747704 18.59078979 169.8440094 C18.59261057 175.51596569 18.59020785 181.18790897 18.58544922 186.85986328 C18.58000939 193.41954989 18.58176759 199.9792054 18.58727562 206.53889126 C18.59181249 212.16696007 18.59245441 217.79501951 18.58983696 223.42308956 C18.58827701 226.78614344 18.58807266 230.1491827 18.59137344 233.51223564 C18.59390432 237.2617594 18.59005301 241.01122293 18.58447266 244.76074219 C18.58649689 245.87825363 18.58852112 246.99576508 18.59060669 248.1471405 C18.58637695 249.67615997 18.58637695 249.67615997 18.58206177 251.23606873 C18.58168474 252.12300132 18.58130772 253.00993391 18.58091927 253.92374325 C18.45507812 256.17700195 18.45507812 256.17700195 17.45507812 259.17700195 C9.20507812 259.17700195 0.95507812 259.17700195 -7.54492188 259.17700195 C-7.5675064 226.32634948 -7.58541966 193.47569999 -7.5959872 160.62504155 C-7.59723798 156.75084149 -7.5985323 152.87664144 -7.59985352 149.00244141 C-7.60011583 148.23112511 -7.60037814 147.4598088 -7.6006484 146.66511928 C-7.60500526 134.15953025 -7.61289289 121.6539458 -7.62207467 109.14835948 C-7.63141076 96.32610424 -7.63697739 83.50385139 -7.63901037 70.68159288 C-7.64038569 62.76315451 -7.64473677 54.84472907 -7.65283834 46.92629468 C-7.65872592 40.86475446 -7.65938095 34.80322547 -7.65802956 28.74168205 C-7.65830609 26.24747513 -7.66031387 23.75326774 -7.66412735 21.25906372 C-7.66905755 17.87000206 -7.66792266 14.48099701 -7.66517639 11.0919342 C-7.66808923 10.09098239 -7.67100207 9.09003057 -7.67400318 8.05874687 C-7.67201214 7.15803977 -7.67002109 6.25733266 -7.6679697 5.3293314 C-7.66834942 4.54596836 -7.66872914 3.76260532 -7.66912037 2.955504 C-7.37499697 -1.2562948 -3.37493376 0.02672119 0 0 Z M17.45507812 20.17700195 C17.35449569 23.09357824 17.31892602 25.98651141 17.32568359 28.90356445 C17.32393127 29.81893982 17.32217896 30.73431519 17.32037354 31.6774292 C17.31595352 34.71897244 17.31889354 37.76045807 17.32226562 40.80200195 C17.32159263 42.90568045 17.32062264 45.00935888 17.31936646 47.11303711 C17.31788928 51.52824644 17.32004467 55.94343559 17.32470703 60.35864258 C17.33040433 66.03192756 17.32712543 71.70516524 17.32113457 77.37844849 C17.31752949 81.72428751 17.3186673 86.07011523 17.32126236 90.41595459 C17.32193178 92.50844325 17.3211027 94.60093293 17.31878281 96.69342041 C17.31625715 99.61245461 17.32009565 102.53141108 17.32568359 105.45043945 C17.32365936 106.32424255 17.32163513 107.19804565 17.31954956 108.09832764 C16.95396923 111.94776437 16.95396923 111.94776437 18.45507812 115.17700195 C20.88520573 115.29072008 23.28569536 115.34119488 25.71679688 115.3449707 C26.45904007 115.3482991 27.20128326 115.3516275 27.96601868 115.35505676 C29.54903544 115.36013654 31.13206298 115.36246477 32.71508789 115.36230469 C35.08759583 115.36445219 37.4596082 115.38248489 39.83203125 115.40161133 C61.55245433 115.52337213 61.55245433 115.52337213 80.33007812 105.67700195 C81.03132813 104.85200195 81.73257813 104.02700195 82.45507812 103.17700195 C83.13570313 102.49637695 83.81632812 101.81575195 84.51757812 101.11450195 C94.62948556 85.78354553 93.83155825 64.45980201 90.36132812 47.1730957 C88.25049339 37.47189941 84.63056893 29.16823556 76.02539062 23.60668945 C68.00529029 19.34067864 60.31916395 19.02415891 51.40039062 19.04418945 C50.458237 19.04323273 49.51608337 19.042276 48.54537964 19.04129028 C46.56703626 19.04061304 44.58869061 19.04243536 42.61035156 19.04663086 C39.56896055 19.05202166 36.5277148 19.04665209 33.48632812 19.0402832 C31.56184863 19.04094336 29.63736923 19.04222323 27.71289062 19.04418945 C26.79943878 19.04216522 25.88598694 19.04014099 24.94485474 19.03805542 C20.87776581 18.63833468 20.87776581 18.63833468 17.45507812 20.17700195 Z " fill="#30B6C0" transform="translate(65.544921875,23.822998046875)"/>
<path d="M0 0 C7.59 0 15.18 0 23 0 C23.33 30.03 23.66 60.06 24 91 C27.96 87.7 31.92 84.4 36 81 C38.82336425 79.30548306 41.36412008 77.84920756 44.3125 76.5 C44.96283203 76.1803125 45.61316406 75.860625 46.28320312 75.53125 C56.15806684 70.79605061 67.3412032 68.80336686 78.05078125 71.875 C86.02565704 75.55385014 90.92202376 81.36065643 94.1235075 89.45981026 C97.37585115 98.88552693 97.28356597 108.60369319 97.24291992 118.46142578 C97.24399506 119.98850078 97.24593717 121.51557538 97.24867249 123.04264832 C97.25348292 127.15561033 97.2459161 131.26846236 97.23571944 135.38141108 C97.22688947 139.69306454 97.22869725 144.00471507 97.2290802 148.31637573 C97.22814665 155.54361803 97.2194992 162.77081807 97.20581055 169.99804688 C97.19002879 178.36147941 97.18481465 186.72486592 97.1855461 195.08831227 C97.18615526 203.1406265 97.18106388 211.19292572 97.17275429 219.24523544 C97.16921829 222.67186475 97.16739062 226.09848874 97.16686058 229.52511978 C97.16585981 233.54872905 97.15978521 237.57229935 97.14969444 241.59589577 C97.14676272 243.07581023 97.14554542 244.55572918 97.14612198 246.03564644 C97.14660925 248.04689064 97.14036398 250.05813319 97.13371277 252.06936646 C97.13203692 253.19718096 97.13036108 254.32499546 97.12863445 255.48698616 C97 258 97 258 96 259 C94.21928754 259.08726223 92.4351686 259.10699041 90.65234375 259.09765625 C89.57275391 259.09443359 88.49316406 259.09121094 87.38085938 259.08789062 C85.67639648 259.07532227 85.67639648 259.07532227 83.9375 259.0625 C82.79732422 259.05798828 81.65714844 259.05347656 80.48242188 259.04882812 C77.65489649 259.03699747 74.8274736 259.0205141 72 259 C71.99780016 257.82331473 71.99780016 257.82331473 71.99555588 256.62285805 C71.95845561 237.50873054 71.89939823 218.3947853 71.81609726 199.28080177 C71.77633889 190.03729599 71.74393015 180.79387496 71.72900391 171.55029297 C71.71597077 163.49075137 71.68896377 155.43139648 71.64538693 147.37196004 C71.6228094 143.10707596 71.60708708 138.84242183 71.60811615 134.57747269 C71.60886497 130.55706847 71.59082604 126.53717189 71.55883217 122.51689911 C71.55036503 121.04724572 71.54856146 119.57753517 71.55419731 118.10786819 C71.58127399 109.95667863 71.53664383 102.07398903 67 95 C62.64953661 91.30887283 59.00491243 90.64009443 53.28125 90.71484375 C46.42067039 91.5724162 40.55628736 95.11059885 35 99 C34.34 99 33.68 99 33 99 C33 99.66 33 100.32 33 101 C31.28515625 102.65625 31.28515625 102.65625 29.0625 104.5 C26.07954821 106.88926999 26.07954821 106.88926999 24 110 C23.89418209 111.96356655 23.85334857 113.93074348 23.84178162 115.89712524 C23.8319928 117.15358353 23.82220398 118.41004181 23.81211853 119.70457458 C23.80621396 121.10464439 23.80040354 122.5047146 23.79467773 123.90478516 C23.78510181 125.37304461 23.7750919 126.84130129 23.76467896 128.30955505 C23.73759287 132.3030932 23.7166034 136.29664321 23.69667697 140.29022264 C23.67484022 144.46094975 23.64744025 148.63164014 23.62062073 152.80233765 C23.57066253 160.70355328 23.52573532 168.60478925 23.48259836 176.50604475 C23.43325268 185.49989826 23.37832467 194.49371495 23.32291877 203.48753285 C23.20905073 221.99165459 23.10242023 240.4958116 23 259 C15.08 259 7.16 259 -1 259 C-1.02258453 226.14934753 -1.04049779 193.29869803 -1.05106533 160.4480396 C-1.05231611 156.57383953 -1.05361042 152.69963949 -1.05493164 148.82543945 C-1.05519395 148.05412315 -1.05545626 147.28280685 -1.05572652 146.48811733 C-1.06008338 133.9825283 -1.06797102 121.47694384 -1.0771528 108.97135753 C-1.08648889 96.14910228 -1.09205551 83.32684944 -1.09408849 70.50459093 C-1.09546382 62.58615256 -1.09981489 54.66772712 -1.10791647 46.74929272 C-1.11380404 40.6877525 -1.11445908 34.62622351 -1.11310768 28.5646801 C-1.11338421 26.07047318 -1.115392 23.57626579 -1.11920547 21.08206177 C-1.12413567 17.6930001 -1.12300079 14.30399506 -1.12025452 10.91493225 C-1.12316736 9.91398043 -1.1260802 8.91302861 -1.12908131 7.88174492 C-1.12709026 6.98103781 -1.12509921 6.08033071 -1.12304783 5.15232944 C-1.12342755 4.3689664 -1.12380727 3.58560336 -1.1241985 2.77850205 C-1 1 -1 1 0 0 Z " fill="#30B6C0" transform="translate(469,24)"/>
<path d="M0 0 C10.51326506 7.67757706 14.50370385 21.14271377 16.68884087 33.38465881 C17.38525193 38.25910074 17.4251163 43.08112391 17.42797852 47.99804688 C17.43641785 49.09745102 17.44485718 50.19685516 17.45355225 51.32957458 C17.47918118 54.93847134 17.49145005 58.54728591 17.50390625 62.15625 C17.52011744 64.69902157 17.5373011 67.2417871 17.55540466 69.7845459 C17.59634186 75.79396001 17.62935933 81.8033614 17.65787882 87.81284285 C17.71180014 99.14158399 17.78132841 110.47021941 17.85581779 121.79884338 C17.87817324 125.47326912 17.89476058 129.14768452 17.91053772 132.82214355 C17.98124692 145.95244441 18.25355141 159.04965512 18.86972141 172.16703033 C18.91685748 173.23802727 18.96399355 174.3090242 19.01255798 175.41247559 C19.05812301 176.36117271 19.10368803 177.30986984 19.15063381 178.28731537 C19.125 180.4375 19.125 180.4375 18.125 181.4375 C16.56327255 181.52435603 14.99770656 181.54452219 13.43359375 181.53515625 C12.58337646 181.53265869 11.73315918 181.53016113 10.85717773 181.52758789 C9.76993408 181.51848389 8.68269043 181.50937988 7.5625 181.5 C4.118125 181.479375 0.67375 181.45875 -2.875 181.4375 C-3.865 174.5075 -4.855 167.5775 -5.875 160.4375 C-6.535 160.4375 -7.195 160.4375 -7.875 160.4375 C-8.10960937 161.1490625 -8.34421875 161.860625 -8.5859375 162.59375 C-12.72448483 171.72363624 -21.41382202 178.76751322 -30.53125 182.53515625 C-39.60166301 184.98289621 -52.160427 185.10561479 -60.671875 180.89453125 C-72.35674489 173.16677156 -78.35862059 163.96054117 -81.5625 150.5625 C-83.18185897 134.36891032 -80.13787832 118.29659605 -69.875 105.3125 C-56.56658932 91.31124365 -37.02330933 82.28110526 -19.453125 74.97265625 C-15.5016795 73.27733083 -11.70490163 71.39041239 -7.875 69.4375 C-7.07590705 49.06955724 -7.07590705 49.06955724 -9.5625 28.9375 C-9.71106445 28.24672363 -9.85962891 27.55594727 -10.01269531 26.84423828 C-11.40929936 21.42044036 -14.03850452 17.27084464 -18.796875 14.1953125 C-27.23618957 11.2740113 -34.12627492 11.87376166 -42.421875 15.17578125 C-48.18874234 18.14186111 -50.9184277 23.39283412 -52.875 29.4375 C-53.4533902 32.71584591 -53.74131891 35.99529546 -54 39.3125 C-54.14470955 41.01854948 -54.29295069 42.72430439 -54.4453125 44.4296875 C-54.50477051 45.17589355 -54.56422852 45.92209961 -54.62548828 46.69091797 C-54.875 48.4375 -54.875 48.4375 -55.875 49.4375 C-57.49757544 49.5366657 -59.12439831 49.56829777 -60.75 49.5703125 C-61.73484375 49.57160156 -62.7196875 49.57289063 -63.734375 49.57421875 C-64.77078125 49.57035156 -65.8071875 49.56648438 -66.875 49.5625 C-68.42960938 49.56830078 -68.42960938 49.56830078 -70.015625 49.57421875 C-71.00046875 49.57292969 -71.9853125 49.57164062 -73 49.5703125 C-73.91007813 49.56918457 -74.82015625 49.56805664 -75.7578125 49.56689453 C-77.875 49.4375 -77.875 49.4375 -78.875 48.4375 C-80.23983713 34.92036303 -76.65133452 19.74122874 -68.6875 8.6875 C-52.94969706 -10.38658237 -20.40425205 -11.75203165 0 0 Z M-12.83984375 88.37890625 C-13.63463135 88.79406494 -14.42941895 89.20922363 -15.24829102 89.63696289 C-16.09447998 90.08676514 -16.94066895 90.53656738 -17.8125 91 C-18.67480225 91.45818115 -19.53710449 91.9163623 -20.42553711 92.38842773 C-34.64691784 100.01299094 -49.92725047 108.57683457 -55.875 124.4375 C-58.14732485 133.54247059 -58.46815176 146.01417851 -53.875 154.4375 C-48.85677832 160.3751751 -43.7832123 163.05308568 -36.0625 163.8125 C-27.35919495 163.53121448 -20.04574882 158.15653696 -13.875 152.4375 C-7.08607851 145.06440043 -5.88886676 139.03615521 -6.19140625 129.2109375 C-6.20131088 127.98210846 -6.21121552 126.75327942 -6.22142029 125.48721313 C-6.26034516 121.59438521 -6.34813755 117.70446364 -6.4375 113.8125 C-6.47264164 111.16019721 -6.5045756 108.50784985 -6.53320312 105.85546875 C-6.61003592 99.38183483 -6.7269084 92.9098751 -6.875 86.4375 C-9.37822598 86.4375 -10.62251289 87.21868369 -12.83984375 88.37890625 Z " fill="#30B6C0" transform="translate(675.875,101.5625)"/>
<path d="M0 0 C0.96808594 0.00161133 1.93617188 0.00322266 2.93359375 0.00488281 C12.8939463 0.17466155 22.41897777 1.79706481 30.3125 8.375 C30.86035156 8.80941406 31.40820312 9.24382812 31.97265625 9.69140625 C45.2497896 21.33443088 47.53777303 40.47594307 49.0625 57.0625 C49.41892831 64.05528392 49.40898639 71.06193257 49.4375 78.0625 C49.44475098 79.80309692 49.44475098 79.80309692 49.45214844 81.57885742 C49.44989258 82.67045166 49.44763672 83.7620459 49.4453125 84.88671875 C49.44418457 85.87115967 49.44305664 86.85560059 49.44189453 87.86987305 C49.3125 90.375 49.3125 90.375 48.3125 93.375 C23.8925 93.705 -0.5275 94.035 -25.6875 94.375 C-27.94087332 129.67807565 -27.94087332 129.67807565 -17.6875 164.375 C-17.6875 165.035 -17.6875 165.695 -17.6875 166.375 C-9.11868854 171.01643954 -0.71605669 173.31751344 8.94140625 170.6484375 C13.6105754 168.75615478 16.54006569 166.69999752 19.3125 162.375 C19.9725 161.385 20.6325 160.395 21.3125 159.375 C23.61764893 152.29430956 23.70761093 145.33936282 23.875 137.9375 C23.93461714 135.58452566 23.99819148 133.23164703 24.06640625 130.87890625 C24.09033447 129.84580322 24.1142627 128.8127002 24.13891602 127.74829102 C24.3125 125.375 24.3125 125.375 25.3125 124.375 C26.93507544 124.2758343 28.56189831 124.24420223 30.1875 124.2421875 C31.17234375 124.24089844 32.1571875 124.23960937 33.171875 124.23828125 C34.20828125 124.24214844 35.2446875 124.24601562 36.3125 124.25 C37.86710937 124.24419922 37.86710937 124.24419922 39.453125 124.23828125 C40.43796875 124.23957031 41.4228125 124.24085938 42.4375 124.2421875 C43.34757812 124.24331543 44.25765625 124.24444336 45.1953125 124.24560547 C47.3125 124.375 47.3125 124.375 48.3125 125.375 C49.98869701 144.03974267 48.13136514 163.45999701 36.1875 178.625 C29.52682447 185.79357018 20.20515619 189.87585386 10.50756836 190.578125 C7.33571145 190.67940565 4.17339271 190.69700687 1 190.6875 C-0.59618164 190.71166992 -0.59618164 190.71166992 -2.22460938 190.73632812 C-14.69775842 190.74393834 -25.45056481 187.77397428 -34.9140625 179.40625 C-50.50756187 163.28712705 -51.00910876 137.64338755 -50.98828125 116.515625 C-50.99218469 114.83380023 -50.99652262 113.15197642 -51.00126648 111.47015381 C-51.008667 107.96737454 -51.00848321 104.46469617 -51.00317383 100.96191406 C-50.99739371 96.53048804 -51.01430543 92.09948197 -51.0375185 87.66812515 C-51.05243763 84.19998872 -51.05310312 80.73194917 -51.05000877 77.26378632 C-51.05051312 75.63274048 -51.0555785 74.00168789 -51.06582069 72.37067413 C-51.18084106 51.49666756 -49.45186755 27.86178823 -35.06640625 11.53515625 C-25.58427027 2.59875472 -12.57670499 -0.02177407 0 0 Z M-19.125 26 C-24.87033864 34.71538658 -25.66610257 45.20944147 -26.25 55.375 C-26.29318359 56.02855469 -26.33636719 56.68210938 -26.38085938 57.35546875 C-26.81611748 64.72031231 -26.6875 71.95486324 -26.6875 79.375 C-9.8575 79.375 6.9725 79.375 24.3125 79.375 C24.374375 73.6825 24.43625 67.99 24.5 62.125 C24.52731201 60.35479492 24.55462402 58.58458984 24.58276367 56.76074219 C24.68563606 45.28496667 24.1712065 34.05787977 17.3125 24.375 C12.33979779 19.40229779 6.84589534 18.28967117 0 18 C-7.56612073 18.18707441 -14.18644146 19.99101498 -19.125 26 Z " fill="#30B6C0" transform="translate(263.6875,94.625)"/>
<path d="M0 0 C0.97018066 0.00418945 1.94036133 0.00837891 2.93994141 0.01269531 C9.70844333 0.11968021 15.81967987 0.67963335 22.125 3.3125 C23.20394531 3.74755859 23.20394531 3.74755859 24.3046875 4.19140625 C33.8327181 8.48800873 39.1431215 14.95461798 43.02734375 24.5390625 C46.6726975 34.8040885 47.4009368 44.59327112 47.25 55.4375 C47.24097656 56.68015625 47.23195313 57.9228125 47.22265625 59.203125 C47.19929823 62.23966798 47.16343531 65.27611044 47.125 68.3125 C39.865 68.3125 32.605 68.3125 25.125 68.3125 C23.85029265 65.7630853 23.96587719 63.88757865 23.9140625 61.03515625 C23.88570313 59.96330078 23.85734375 58.89144531 23.828125 57.78710938 C23.77685004 55.54767545 23.73235444 53.30807393 23.6953125 51.06835938 C23.39502019 40.55187237 22.19617661 30.17432569 14.3125 22.5625 C7.65019821 18.7554704 0.06720726 18.30996033 -7.33984375 19.8125 C-13.17703523 21.52189385 -16.92302478 23.8453552 -19.9921875 29.296875 C-26.06868189 42.51435915 -25.17848355 58.48014023 -25.140625 72.72265625 C-25.14197734 74.54715527 -25.14392257 76.37165393 -25.14642334 78.19615173 C-25.14934713 81.99221274 -25.14516598 85.78817869 -25.13574219 89.58422852 C-25.12434117 94.40716389 -25.13092892 99.22987671 -25.14288712 104.05280399 C-25.15017356 107.81157557 -25.14778708 111.57029587 -25.14263153 115.32906914 C-25.14131414 117.10575831 -25.14287424 118.88245242 -25.14759064 120.65913582 C-25.60379604 144.70518015 -25.60379604 144.70518015 -16.625 166.3125 C-9.22442644 171.69473532 -1.81357906 172.26434379 7.125 171.3125 C12.35271082 170.09193316 15.96194793 168.12713108 19.0625 163.6875 C24.33090307 153.43696669 23.50411921 141.61718173 23.69140625 130.39648438 C23.72105469 129.14287109 23.75070312 127.88925781 23.78125 126.59765625 C23.79994141 125.46207275 23.81863281 124.32648926 23.83789062 123.15649414 C24.125 120.3125 24.125 120.3125 26.125 117.3125 C28.17211914 116.95605469 28.17211914 116.95605469 30.66015625 116.984375 C31.99723633 116.99210937 31.99723633 116.99210937 33.36132812 117 C34.29396484 117.020625 35.22660156 117.04125 36.1875 117.0625 C37.12400391 117.06765625 38.06050781 117.0728125 39.02539062 117.078125 C45.97109661 117.15859661 45.97109661 117.15859661 47.125 118.3125 C48.42745731 138.0822232 48.88757951 161.28080986 35.7421875 177.5 C28.90246294 185.16577826 19.98306362 189.76549125 9.58227539 190.48950195 C-22.50961741 191.17720494 -22.50961741 191.17720494 -33.875 180.3125 C-51.39378525 162.93790228 -50.9779077 135.05383052 -51.140625 111.91015625 C-51.15084796 108.04064252 -51.14830317 104.17150848 -51.13574219 100.30200195 C-51.12502495 96.38411963 -51.13569885 92.46669662 -51.1484375 88.54882812 C-51.18219264 28.20843082 -51.18219264 28.20843082 -34.25 10.625 C-24.70461413 1.78667975 -12.5648226 -0.07400034 0 0 Z " fill="#32B7C0" transform="translate(389.875,94.6875)"/>
<path d="M0 0 C0.83708496 0.00563965 1.67416992 0.0112793 2.53662109 0.01708984 C13.78447778 0.23806505 22.16711183 3.3971803 30.53125 11.05859375 C40.44504461 21.51590781 44.27690313 35.29229255 45.625 49.3125 C42.73428596 51.70135397 40.22206105 52.96365162 36.625 54 C35.779375 54.25136719 34.93375 54.50273437 34.0625 54.76171875 C31.625 55.3125 31.625 55.3125 27.625 55.3125 C27.27888672 53.42917969 27.27888672 53.42917969 26.92578125 51.5078125 C24.28837815 36.51890126 24.28837815 36.51890126 16.3125 23.875 C9.29568565 19.79545678 2.89012633 17.99992625 -5.1484375 20.00390625 C-11.30999289 21.97791662 -14.89697083 23.81497002 -18.375 29.3125 C-21.56468872 35.90755035 -21.41908618 43.77878351 -19.79296875 50.83984375 C-17.23743342 57.2928622 -11.65245606 66.17377197 -5.375 69.3125 C-5.375 69.9725 -5.375 70.6325 -5.375 71.3125 C-4.818125 71.56 -4.26125 71.8075 -3.6875 72.0625 C-0.95089087 73.54174818 1.30150869 75.24717439 3.625 77.3125 C3.625 77.9725 3.625 78.6325 3.625 79.3125 C4.42550781 79.63541016 4.42550781 79.63541016 5.2421875 79.96484375 C8.50157608 81.80826844 11.0531177 84.31263373 13.75 86.875 C17.38903407 90.49883907 17.38903407 90.49883907 21.625 93.3125 C21.625 93.9725 21.625 94.6325 21.625 95.3125 C22.18832031 95.55355469 22.75164062 95.79460937 23.33203125 96.04296875 C35.88210082 102.99147405 45.47424688 118.9775013 49.625 132.3125 C50.27998849 135.33628146 50.54832428 138.22356403 50.625 141.3125 C50.66367187 142.10140625 50.70234375 142.8903125 50.7421875 143.703125 C51.11740401 156.9607751 47.79191915 168.64850548 38.640625 178.49609375 C28.5106637 187.62483794 16.71681442 190.49557942 3.5 190.5625 C2.00726562 190.5934375 2.00726562 190.5934375 0.484375 190.625 C-12.38005881 190.6921772 -22.96536032 186.50913424 -32.5 177.8125 C-39.72237802 170.09303523 -44.33482507 160.98702234 -46.9375 150.8125 C-47.10604492 150.15443359 -47.27458984 149.49636719 -47.44824219 148.81835938 C-48.37691665 144.69512899 -48.33180509 141.41852451 -47.375 137.3125 C-44.60708055 136.44771219 -41.83634374 135.59538326 -39.0625 134.75 C-37.88397461 134.3797168 -37.88397461 134.3797168 -36.68164062 134.00195312 C-35.92431641 133.77314453 -35.16699219 133.54433594 -34.38671875 133.30859375 C-33.69022217 133.09388428 -32.99372559 132.8791748 -32.27612305 132.65795898 C-30.375 132.3125 -30.375 132.3125 -27.375 133.3125 C-26.6120364 136.14507745 -26.01983732 138.87215542 -25.5 141.75 C-23.59713256 151.18818534 -21.26118658 160.07691061 -13.375 166.3125 C-5.40751961 170.91454172 1.39928288 172.12402141 10.625 171.3125 C13.84693735 170.30564458 16.66353776 168.90861277 19.625 167.3125 C20.615 166.9825 21.605 166.6525 22.625 166.3125 C23.74435073 164.66619807 23.74435073 164.66619807 24.625 162.3125 C25.429375 160.6728125 25.429375 160.6728125 26.25 159 C29.37746054 150.41953133 28.86859004 139.91154832 25.0390625 131.66015625 C22.83673615 128.0038078 20.21513375 124.7659757 17.4296875 121.5390625 C15.625 119.3125 15.625 119.3125 14.6328125 117.1484375 C13.32418968 114.76451221 12.06064624 114.48109653 9.625 113.3125 C7.72138336 111.65779608 5.8858584 109.98812431 4.0625 108.25 C0.20930108 104.64201001 -3.68856011 101.17657064 -7.8125 97.875 C-13.78771219 93.05851203 -19.40133598 87.89807372 -24.97558594 82.62841797 C-26.14109292 81.53245101 -27.32254011 80.45346638 -28.5078125 79.37890625 C-36.20305567 72.18402642 -41.00786425 63.5276012 -43.375 53.3125 C-43.64763672 52.39791016 -43.64763672 52.39791016 -43.92578125 51.46484375 C-46.40569455 39.58282439 -43.90581022 27.77147065 -37.6875 17.5 C-28.7593992 5.08611677 -14.81416211 -0.10447223 0 0 Z " fill="#32B6C0" transform="translate(951.375,94.6875)"/>
<path d="M0 0 C0.89267578 0.00644531 1.78535156 0.01289062 2.70507812 0.01953125 C3.63384766 0.03628906 4.56261719 0.05304687 5.51953125 0.0703125 C6.45990234 0.07933594 7.40027344 0.08835938 8.36914062 0.09765625 C10.69036093 0.12122194 13.01106769 0.15412134 15.33203125 0.1953125 C17.23903649 3.42109897 17.57682363 5.7889121 17.55908203 9.51464844 C17.55893097 10.57544617 17.55877991 11.6362439 17.55862427 12.72918701 C17.5483017 13.86785217 17.53797913 15.00651733 17.52734375 16.1796875 C17.52451385 17.35041809 17.52168396 18.52114868 17.51876831 19.72735596 C17.50757281 23.46677875 17.48246901 27.20596209 17.45703125 30.9453125 C17.44700065 33.48046529 17.43787494 36.01562184 17.4296875 38.55078125 C17.40763551 44.76570671 17.374164 50.9804925 17.33203125 57.1953125 C18.20529053 57.19007568 19.0785498 57.18483887 19.97827148 57.17944336 C23.20792398 57.16243499 26.4375537 57.14987881 29.66723633 57.14038086 C31.06698353 57.1353417 32.46672545 57.12851034 33.86645508 57.11987305 C35.87448902 57.1077893 37.88256082 57.10261443 39.890625 57.09765625 C41.70518188 57.08980103 41.70518188 57.08980103 43.55639648 57.08178711 C46.33203125 57.1953125 46.33203125 57.1953125 47.33203125 58.1953125 C47.43112427 60.52691305 47.46173629 62.86161192 47.45703125 65.1953125 C47.46089844 67.1134375 47.46089844 67.1134375 47.46484375 69.0703125 C47.33203125 72.1953125 47.33203125 72.1953125 46.33203125 73.1953125 C44.18644298 73.28306855 42.03798704 73.30226469 39.890625 73.29296875 C38.58544922 73.28974609 37.28027344 73.28652344 35.93554688 73.28320312 C34.54687435 73.27484651 33.15820248 73.26638155 31.76953125 73.2578125 C30.37695469 73.25279916 28.98437644 73.24823597 27.59179688 73.24414062 C24.17183255 73.23230684 20.75195281 73.2158213 17.33203125 73.1953125 C17.26174978 90.44220167 17.20894977 107.68904574 17.17659473 124.93604565 C17.16116812 132.945287 17.14015972 140.95443904 17.10571289 148.96362305 C17.075681 155.94966471 17.05642573 162.93564164 17.04976577 169.92174608 C17.04587669 173.61610167 17.03682619 177.3102722 17.01484108 181.0045681 C16.99041762 185.14269368 16.99007003 189.28050362 16.99145508 193.41870117 C16.98066925 194.62496155 16.96988342 195.83122192 16.95877075 197.07403564 C16.86654349 210.62231657 16.86654349 210.62231657 22.30042744 222.51649761 C26.68586973 226.14040586 32.16223497 225.29279085 37.58203125 225.1953125 C40.17171937 225.1497194 42.74098231 225.14798741 45.33203125 225.1953125 C46.33203125 226.1953125 46.33203125 226.1953125 46.4296875 230.01171875 C46.42301214 231.59377932 46.41105 233.17582409 46.39453125 234.7578125 C46.39001953 235.56412109 46.38550781 236.37042969 46.38085938 237.20117188 C46.36903643 239.19925006 46.35110039 241.19729033 46.33203125 243.1953125 C40.46882791 245.74144405 34.72922973 245.52691176 28.45703125 245.5078125 C27.40644531 245.52392578 26.35585938 245.54003906 25.2734375 245.55664062 C16.3669185 245.56221417 9.43938218 243.91209477 2.33203125 238.1953125 C-7.88072173 227.43321828 -7.82069244 213.54747765 -7.78149414 199.54907227 C-7.78121174 198.16874697 -7.78137103 196.78842152 -7.78193665 195.40809631 C-7.78222257 191.67721157 -7.77635901 187.94635923 -7.76936269 184.215482 C-7.76309499 180.31039931 -7.76252265 176.40531582 -7.76133728 172.50022888 C-7.75823402 165.11268409 -7.75003421 157.72515416 -7.73998779 150.33761591 C-7.7287954 141.92407278 -7.72330833 133.51052893 -7.71829236 125.09698021 C-7.70785074 107.79641548 -7.69006845 90.49586613 -7.66796875 73.1953125 C-14.92796875 73.1953125 -22.18796875 73.1953125 -29.66796875 73.1953125 C-29.66796875 67.9153125 -29.66796875 62.6353125 -29.66796875 57.1953125 C-22.40796875 57.1953125 -15.14796875 57.1953125 -7.66796875 57.1953125 C-7.6836792 55.53967285 -7.69938965 53.8840332 -7.71557617 52.17822266 C-7.76974452 46.05441118 -7.80427121 39.930621 -7.83276367 33.80664062 C-7.8478802 31.15263309 -7.8683737 28.49865064 -7.89428711 25.84472656 C-7.93054396 22.0370465 -7.94766638 18.22969575 -7.9609375 14.421875 C-7.97642136 13.22913971 -7.99190521 12.03640442 -8.00785828 10.80752563 C-8.00808487 9.70653534 -8.00831146 8.60554504 -8.00854492 7.47119141 C-8.01520676 6.49856354 -8.02186859 5.52593567 -8.0287323 4.52383423 C-7.90968033 3.75542206 -7.79062836 2.98700989 -7.66796875 2.1953125 C-4.46390413 0.05926942 -3.67196128 -0.04677658 0 0 Z " fill="#31B6C0" transform="translate(839.66796875,39.8046875)"/>
<path d="M0 0 C0.86882812 -0.01417969 1.73765625 -0.02835937 2.6328125 -0.04296875 C4.875 0.1875 4.875 0.1875 6.875 2.1875 C7.10205078 4.52587891 7.10205078 4.52587891 7.0703125 7.4140625 C7.06386719 8.4453125 7.05742188 9.4765625 7.05078125 10.5390625 C7.02564453 12.15941406 7.02564453 12.15941406 7 13.8125 C6.99097656 14.90046875 6.98195313 15.9884375 6.97265625 17.109375 C6.94903409 19.80230152 6.91609556 22.49479255 6.875 25.1875 C3.70268454 26.07568239 2.04285501 26.07976918 -1.125 25.1875 C-10.5629843 24.25440917 -18.01542134 26.48242895 -26.3125 30.875 C-31.1749726 34.87303303 -38.72934867 41.25321401 -39.38671303 47.78992748 C-39.39224379 48.84169328 -39.39777454 49.89345907 -39.4034729 50.97709656 C-39.41463638 52.18444458 -39.42579987 53.3917926 -39.43730164 54.63572693 C-39.43966665 55.97549407 -39.44184229 57.31526156 -39.44384766 58.6550293 C-39.45314472 60.06432675 -39.46331306 61.47361868 -39.47428894 62.88290405 C-39.50162818 66.71110499 -39.51674991 70.53926905 -39.52971697 74.36754203 C-39.54533039 78.36745171 -39.57212628 82.36728589 -39.5977478 86.36714172 C-39.64456734 93.94248887 -39.68129605 101.51785016 -39.71442068 109.09326822 C-39.75261966 117.71716225 -39.80203562 126.34098052 -39.85240483 134.96481073 C-39.9557719 152.70565261 -40.04461885 170.44654011 -40.125 188.1875 C-48.375 188.1875 -56.625 188.1875 -65.125 188.1875 C-65.14811623 164.08376804 -65.1659778 139.98003875 -65.17681217 115.87629795 C-65.18197572 104.6853504 -65.18901954 93.49440985 -65.20043945 82.3034668 C-65.21038449 72.55320622 -65.216853 62.80295071 -65.21908849 53.0526852 C-65.22039591 47.88660902 -65.22348369 42.72054733 -65.23073006 37.55447578 C-65.23748744 32.69793666 -65.23961754 27.8414181 -65.23810768 22.98487473 C-65.23838414 21.19696758 -65.24039092 19.40905979 -65.24420547 17.62115669 C-65.24913833 15.19110201 -65.24799981 12.76112623 -65.24525452 10.33106995 C-65.24816736 9.61415735 -65.2510802 8.89724476 -65.25408131 8.15860754 C-65.23912121 3.30162121 -65.23912121 3.30162121 -64.125 2.1875 C-62.34428754 2.10023777 -60.5601686 2.08050959 -58.77734375 2.08984375 C-57.69775391 2.09306641 -56.61816406 2.09628906 -55.50585938 2.09960938 C-53.80139648 2.11217773 -53.80139648 2.11217773 -52.0625 2.125 C-50.35223633 2.13176758 -50.35223633 2.13176758 -48.60742188 2.13867188 C-45.77992582 2.1505024 -42.95245655 2.1684385 -40.125 2.1875 C-39.795 9.1175 -39.465 16.0475 -39.125 23.1875 C-37.825625 21.681875 -36.52625 20.17625 -35.1875 18.625 C-25.90627159 8.38962661 -14.35033238 0.10709203 0 0 Z " fill="#30B6C0" transform="translate(793.125,94.8125)"/>
<path d="M0 0 C0.33 0 0.66 0 1 0 C1.07430494 4.19918185 1.12867413 8.39801274 1.16479492 12.59765625 C1.17985681 14.02545846 1.20031062 15.4532146 1.22631836 16.88085938 C1.26281842 18.93631373 1.27975166 20.99115505 1.29296875 23.046875 C1.3086792 24.28276367 1.32438965 25.51865234 1.34057617 26.79199219 C0.97859576 30.20161411 0.32290222 31.54581495 -2 34 C-1.84660156 32.9584375 -1.69320313 31.916875 -1.53515625 30.84375 C-0.77368738 24.75199907 -0.64298189 18.63077114 -0.4375 12.5 C-0.39431641 11.29601562 -0.35113281 10.09203125 -0.30664062 8.8515625 C-0.20126832 5.90113807 -0.09914097 2.95063929 0 0 Z " fill="#E9CBC6" transform="translate(288,220)"/>
<path d="M0 0 C-1.4615836 3.36997254 -3.3380888 5.60745127 -5.9375 8.1875 C-6.97197266 9.22970703 -6.97197266 9.22970703 -8.02734375 10.29296875 C-10 12 -10 12 -13 13 C-10.90320497 8.04393902 -5.99962826 0 0 0 Z " fill="#8FC0C4" transform="translate(616,200)"/>
<path d="M0 0 C-1.4216688 3.36633493 -3.10840768 5.15631382 -5.9375 7.4375 C-9.01882502 10.03230002 -11.21617079 12.32085225 -13 16 C-13.66 15.67 -14.32 15.34 -15 15 C-4.36363636 0 -4.36363636 0 0 0 Z " fill="#99BFC3" transform="translate(768,105)"/>
</svg>
